<?xml version="1.0" encoding="UTF-8" standalone="no"?>
<svg
   xmlns:dc="http://purl.org/dc/elements/1.1/"
   xmlns:cc="http://creativecommons.org/ns#"
   xmlns:rdf="http://www.w3.org/1999/02/22-rdf-syntax-ns#"
   xmlns:svg="http://www.w3.org/2000/svg"
   xmlns="http://www.w3.org/2000/svg"
   xmlns:sodipodi="http://sodipodi.sourceforge.net/DTD/sodipodi-0.dtd"
   xmlns:inkscape="http://www.inkscape.org/namespaces/inkscape"
   version="1.0"
   width="200"
   height="100"
   id="svg2746"
   sodipodi:docname="aston.svg"
   inkscape:version="1.0 (4035a4fb49, 2020-05-01)">
  <metadata
     id="metadata2567">
    <rdf:RDF>
      <cc:Work
         rdf:about="">
        <dc:format>image/svg+xml</dc:format>
        <dc:type
           rdf:resource="http://purl.org/dc/dcmitype/StillImage" />
        <dc:title></dc:title>
      </cc:Work>
    </rdf:RDF>
  </metadata>
  <sodipodi:namedview
     inkscape:document-rotation="0"
     pagecolor="#ffffff"
     bordercolor="#666666"
     borderopacity="1"
     objecttolerance="10"
     gridtolerance="10"
     guidetolerance="10"
     inkscape:pageopacity="0"
     inkscape:pageshadow="2"
     inkscape:window-width="1366"
     inkscape:window-height="705"
     id="namedview2565"
     showgrid="false"
     inkscape:zoom="0.79821958"
     inkscape:cx="380.72827"
     inkscape:cy="286.88848"
     inkscape:window-x="-8"
     inkscape:window-y="304"
     inkscape:window-maximized="1"
     inkscape:current-layer="svg2746" />
  <defs
     id="defs2748" />
  <g
     style="fill:#808080"
     id="g3229"
     transform="matrix(0.22014422,0,0,0.22014422,1.0067233,1.6478927)">
    <path
       style="fill:#808080;fill-opacity:1;fill-rule:nonzero;stroke:none;stroke-width:4.07365"
       id="path59"
       d="m 22.64003,356.32828 c 0,-22.66424 0,-26.7323 -0.291266,-31.38136 -0.290859,-4.93979 -1.452257,-7.26535 -6.246453,-8.28173 -1.163027,-0.28923 -3.633166,-0.4369 -4.940319,-0.4369 -0.581514,0 -1.1620087,-0.29085 -1.1620087,-0.87021 0,-0.87176 0.7251097,-1.16356 2.3240167,-1.16356 6.538738,0 15.400963,0.43641 16.708604,0.43641 1.306623,0 10.024723,-0.43641 14.384057,-0.43641 1.59736,0 2.325036,0.29168 2.325036,1.16356 0,0.57948 -0.582043,0.87021 -1.163027,0.87021 -1.016905,0 -1.888137,0.14747 -3.633207,0.4369 -3.922924,0.58103 -5.084403,3.19631 -5.375669,8.28173 -0.289229,4.64906 -0.289229,8.71712 -0.289229,31.38136 v 20.34177 c 0,20.92076 4.649052,29.93013 10.895994,35.88429 7.119192,6.68588 13.656911,7.99299 21.939129,7.99299 8.861736,0 17.579347,-4.21521 22.809383,-10.45909 6.683841,-8.28479 8.427893,-20.63353 8.427893,-35.59706 v -18.1629 c 0,-22.66424 0,-26.7323 -0.291266,-31.38136 -0.290451,-4.93979 -1.452786,-7.26535 -6.24796,-8.28173 -1.162009,-0.28923 -3.631659,-0.4369 -4.939301,-0.4369 -0.580495,0 -1.162008,-0.29085 -1.162008,-0.87021 0,-0.87176 0.726617,-1.16356 2.325035,-1.16356 6.53719,0 14.528146,0.43641 15.400436,0.43641 1.01686,0 7.84634,-0.43641 12.20363,-0.43641 1.59838,0 2.32553,0.29168 2.32553,1.16356 0,0.57948 -0.58152,0.87021 -1.16303,0.87021 -1.01686,0 -1.88814,0 -3.63166,0.4369 -3.9219,0.72666 -5.08493,3.19631 -5.37518,8.28173 -0.29167,4.64906 -0.29167,8.71712 -0.29167,31.38136 v 15.5466 c 0,15.69219 -1.74352,33.12794 -13.366665,43.44189 -10.460644,9.29863 -21.357127,10.75138 -29.928616,10.75138 -4.940807,0 -19.615112,-0.58099 -29.929593,-10.31599 -7.119232,-6.82744 -12.640535,-16.99783 -12.640535,-38.21185" />
    <path
       style="fill:#808080;fill-opacity:1;fill-rule:nonzero;stroke:none;stroke-width:4.07365"
       id="path61"
       d="m 182.73854,10.968335 c -25.22812,4.448426 -43.20208,25.834068 -44.32897,50.398176 l 83.33111,-42.25495 C 210.66186,11.764734 196.86339,8.4783168 182.73854,10.968335" />
    <path
       style="fill:#808080;fill-opacity:1;fill-rule:nonzero;stroke:none;stroke-width:4.07365"
       id="path63"
       d="m 215.15509,112.3783 c -1.16812,0.55552 -2.35709,1.07748 -3.5741,1.55051 -3.23651,1.25623 -6.63752,2.22373 -10.18567,2.84952 -26.87435,4.7392 -52.58674,-11.3955 -60.55073,-36.748882 l 71.63668,31.184802 25.15528,-75.789229 c 3.54969,5.680175 6.10029,12.117071 7.33562,19.120163 4.28955,24.333947 -8.53376,47.717226 -29.81708,57.833116" />
    <path
       style="fill:#808080;fill-opacity:1;fill-rule:nonzero;stroke:none;stroke-width:4.07365"
       id="path65"
       d="m 158.66579,68.101802 59.42388,-30.13075 -16.24062,48.930643" />
    <path
       style="fill:#808080;fill-opacity:1;fill-rule:nonzero;stroke:none;stroke-width:4.07365"
       id="path67"
       d="m 232.72833,228.82867 c 0.96749,0 0.96749,-0.58151 0.7755,-1.35604 l -18.40475,-52.30668 c -0.96749,-2.90602 -1.93649,-2.90602 -2.90704,0 l -17.04619,52.30668 c -0.38821,0.96802 0,1.35604 0.57997,1.35604 z m -20.14827,-77.49051 c 2.3245,-6.39307 3.10053,-7.55561 4.26254,-7.55561 1.16254,0 1.93653,0.96953 4.26157,6.97462 2.90704,7.36109 33.32091,87.3696 45.13807,116.81545 6.97409,17.24172 12.59214,20.34177 16.66172,21.50378 2.90553,0.96802 5.81106,1.16254 7.74808,1.16254 1.16201,0 1.93755,0.1935 1.93755,1.16201 0,1.16249 -1.74303,1.55051 -3.87457,1.55051 -2.90553,0 -17.04769,0 -30.41537,-0.38781 -3.68156,-0.1935 -5.81159,-0.1935 -5.81159,-1.35551 0,-0.7755 0.58,-1.16351 1.3555,-1.35652 1.16254,-0.387 2.32504,-2.13052 1.16254,-5.23057 l -18.01673,-47.65608 c -0.38659,-0.77452 -0.77453,-1.16254 -1.74353,-1.16254 h -41.65001 c -0.96904,0 -1.549,0.58103 -1.93702,1.55003 l -11.62416,34.28892 c -1.74303,4.84357 -2.71203,9.49263 -2.71203,12.97967 0,3.87457 4.06754,5.61809 7.36108,5.61809 h 1.93853 c 1.35551,0 1.93653,0.38822 1.93653,1.16201 0,1.1625 -1.16253,1.55051 -2.90606,1.55051 -4.64905,0 -12.97966,-0.58151 -15.10916,-0.58151 -2.13305,0 -12.78666,0.58151 -21.89229,0.58151 -2.51853,0 -3.68107,-0.38781 -3.68107,-1.55051 0,-0.77399 0.77554,-1.16201 1.74405,-1.16201 1.35551,0 4.06856,-0.19431 5.61859,-0.3874 8.9111,-1.16303 12.78563,-8.52257 16.27219,-18.21023" />
    <path
       style="fill:#808080;fill-opacity:1;fill-rule:nonzero;stroke:none;stroke-width:4.07365"
       id="path69"
       d="m 313.98896,290.91769 c -2.03377,-1.01788 -2.17887,-1.59736 -2.17887,-5.5213 0,-7.26385 0.58151,-13.0754 0.72613,-15.40145 0.14461,-1.59891 0.43637,-2.32353 1.16201,-2.32353 0.87176,0 1.01637,0.43588 1.01637,1.59789 0,1.30662 0,3.34092 0.4369,5.37469 2.17839,10.7524 11.76878,14.82043 21.50325,14.82043 13.94716,0 20.77663,-10.02526 20.77663,-19.32336 0,-10.02424 -4.21419,-15.8368 -16.70856,-26.15129 l -6.53874,-5.37619 c -15.3999,-12.64107 -18.88695,-21.6484 -18.88695,-31.52903 0,-15.5466 11.62315,-26.15133 30.07474,-26.15133 5.66694,0 9.87962,0.58103 13.5123,1.45279 2.7599,0.58098 3.9219,0.72714 5.0844,0.72714 1.16201,0 1.45279,0.28923 1.45279,1.01638 0,0.7256 -0.58103,5.52081 -0.58103,15.3999 0,2.32504 -0.29086,3.34194 -1.01637,3.34194 -0.87176,0 -1.01789,-0.72665 -1.1625,-1.88866 -0.14624,-1.74353 -1.01739,-5.66543 -1.88916,-7.26434 -0.87176,-1.59891 -4.79366,-7.69969 -18.16134,-7.69969 -10.02424,0 -17.8696,6.24695 -17.8696,16.85269 0,8.2812 4.06807,13.22205 17.72498,24.40829 l 4.06803,3.19782 c 17.14497,13.51229 21.21304,22.5186 21.21304,34.14228 0,5.95616 -2.32605,16.99934 -12.35029,24.11751 -6.24796,4.35982 -14.09332,6.10387 -21.93864,6.10387 -6.82898,0 -13.5118,-1.01792 -19.46952,-3.92345" />
    <path
       style="fill:#808080;fill-opacity:1;fill-rule:nonzero;stroke:none;stroke-width:4.07365"
       id="path71"
       d="m 445.74607,250.6726 c 0,13.94716 0,25.42568 0.72715,31.52748 0.43641,4.21268 1.30662,7.40895 5.66644,7.98997 2.0343,0.29249 5.23057,0.58099 6.53719,0.58099 0.87075,0 1.16254,0.4369 1.16254,0.87176 0,0.72715 -0.72714,1.16356 -2.32455,1.16356 -7.99148,0 -17.14497,-0.43641 -17.86955,-0.43641 -0.72714,0 -9.88218,0.43641 -14.23944,0.43641 -1.59842,0 -2.32455,-0.29168 -2.32455,-1.16356 0,-0.43486 0.28923,-0.87176 1.16099,-0.87176 1.30817,0 3.0517,-0.28882 4.35983,-0.58099 2.90451,-0.58102 3.63165,-3.77729 4.21419,-7.98997 0.72564,-6.1018 0.72564,-17.58032 0.72564,-31.52748 v -61.45765 l -21.50378,0.28923 c -9.00737,0.14624 -12.49442,1.16405 -14.81892,4.6506 -1.5974,2.46912 -2.03377,3.4855 -2.47067,4.50289 -0.43486,1.16254 -0.87127,1.45328 -1.45279,1.45328 -0.43535,0 -0.72559,-0.43535 -0.72559,-1.30712 0,-1.45278 2.90553,-13.9487 3.19626,-15.11071 0.29086,-0.87176 0.87176,-2.7599 1.45279,-2.7599 1.01788,0 2.47067,1.45279 6.39257,1.74303 4.21419,0.4369 9.73501,0.72613 11.478,0.72613 h 54.48405 c 9.29965,0 13.22054,-1.45327 14.38405,-1.45327 0.72564,0 0.72564,0.87225 0.72564,1.74401 0,4.35982 -0.43641,14.38357 -0.43641,15.98248 0,1.30711 -0.43486,1.88813 -1.01483,1.88813 -0.72869,0 -1.01894,-0.43539 -1.16506,-2.46916 l -0.14298,-1.59891 c -0.58099,-4.35827 -3.92342,-7.7007 -17.87212,-7.99148 l -18.30597,-0.28923" />
    <path
       style="fill:#808080;fill-opacity:1;fill-rule:nonzero;stroke:none;stroke-width:4.07365"
       id="path73"
       d="m 567.63937,289.32033 c 13.07437,0 40.09844,-7.55511 40.09844,-49.83703 0,-34.86792 -21.213,-53.61078 -44.16904,-53.61078 -24.26062,0 -42.42197,15.98195 -42.42197,47.80123 0,33.85202 20.33973,55.64658 46.49257,55.64658 z m -3.05015,-108.38711 c 32.68949,0 57.09574,20.63051 57.09574,54.48254 0,32.54488 -22.95448,59.42538 -57.96905,59.42538 -39.81076,0 -56.37218,-30.94804 -56.37218,-57.09933 0,-23.53754 17.14245,-56.80859 57.24549,-56.80859" />
    <path
       style="fill:#808080;fill-opacity:1;fill-rule:nonzero;stroke:none;stroke-width:4.07365"
       id="path75"
       d="m 669.46175,273.04659 c 0.29167,11.91339 1.74609,15.69068 5.66848,16.85322 2.76092,0.72714 5.95621,0.87123 7.26385,0.87123 0.72714,0 1.16099,0.29208 1.16099,0.87176 0,0.87176 -0.86871,1.16356 -2.61378,1.16356 -8.28018,0 -14.09483,-0.43641 -15.40145,-0.43641 -1.30711,0 -7.40895,0.43641 -13.94614,0.43641 -1.45429,0 -2.32756,-0.14584 -2.32756,-1.16356 0,-0.57948 0.43995,-0.87176 1.1625,-0.87176 1.16506,0 3.78034,-0.14421 5.95771,-0.87123 3.63573,-1.01638 4.35982,-5.23057 4.35982,-18.45058 l 0.14462,-83.25167 c 0,-5.66543 0.4369,-7.26434 1.59891,-7.26434 1.16355,0 3.63267,3.19631 5.08444,4.64905 2.1794,2.47067 23.8278,25.8621 46.20333,49.83349 14.38508,15.40194 30.22037,33.1259 34.86943,37.92161 l -1.59993,-73.80794 c -0.14502,-9.44374 -1.16099,-12.64053 -5.66697,-13.80099 -2.61374,-0.58103 -5.95568,-0.72768 -7.11818,-0.72768 -1.01487,0 -1.16099,-0.43637 -1.16099,-1.01585 0,-0.87176 1.16099,-1.01792 2.90553,-1.01792 6.54025,0 13.5123,0.43539 15.10966,0.43539 1.5974,0 6.3931,-0.43539 12.35029,-0.43539 1.59841,0 2.61528,0.14625 2.61528,1.01792 0,0.57948 -0.58302,1.01585 -1.59891,1.01585 -0.72613,0 -1.74352,0 -3.4855,0.43539 -4.79672,1.01789 -5.37518,4.21419 -5.37518,12.93127 l -0.29167,85.13981 c 0,9.58986 -0.29086,10.31599 -1.30968,10.31599 -1.16046,0 -2.90451,-1.59891 -10.60473,-9.29961 -1.59939,-1.45177 -22.52015,-22.8104 -37.91903,-39.37183 -16.85269,-18.16135 -33.27105,-36.46886 -37.92263,-41.69889" />
    <path
       style="fill:#808080;fill-opacity:1;fill-rule:nonzero;stroke:none;stroke-width:4.07365"
       id="path77"
       d="m 151.44423,410.71815 c 0.19309,7.9426 1.16254,10.45856 3.77729,11.23459 1.83978,0.4853 3.96977,0.58001 4.84105,0.58001 0.48525,0 0.77603,0.19309 0.77603,0.58098 0,0.58103 -0.58103,0.77453 -1.74353,0.77453 -5.52081,0 -9.39538,-0.29086 -10.26612,-0.29086 -0.87176,0 -4.93979,0.29086 -9.29811,0.29086 -0.969,0 -1.55051,-0.0957 -1.55051,-0.77453 0,-0.38781 0.29167,-0.58098 0.7755,-0.58098 0.77501,0 2.51804,-0.0945 3.97132,-0.58001 2.42125,-0.67826 2.905,-3.48806 2.905,-12.30087 l 0.0978,-55.49892 c 0,-3.77574 0.29004,-4.841 1.06477,-4.841 0.77501,0 2.42178,2.12999 3.39029,3.09903 1.45226,1.64474 15.88365,17.23916 30.80034,33.22061 9.58888,10.26609 20.14522,22.08224 23.24579,25.28005 l -1.06681,-49.2041 c -0.0974,-6.29685 -0.77448,-8.42635 -3.77574,-9.20083 -1.74507,-0.3874 -3.97234,-0.48375 -4.74633,-0.48375 -0.67875,0 -0.77603,-0.29085 -0.77603,-0.67826 0,-0.58253 0.77603,-0.67724 1.93653,-0.67724 4.36031,0 9.00786,0.29045 10.07312,0.29045 1.06628,0 4.26205,-0.29045 8.23284,-0.29045 1.06628,0 1.74353,0.0949 1.74353,0.67724 0,0.38741 -0.38782,0.67826 -1.06526,0.67826 -0.48477,0 -1.16201,0 -2.32455,0.29086 -3.19627,0.67827 -3.58379,2.8083 -3.58379,8.61985 l -0.1935,56.75665 c 0,6.39258 -0.19309,6.87681 -0.87176,6.87681 -0.774,0 -1.93751,-1.06371 -7.06929,-6.19806 -1.06628,-0.969 -15.01242,-15.20693 -25.27956,-26.24905 -11.23513,-12.10485 -22.17948,-24.30901 -25.27953,-27.79708" />
    <path
       style="fill:#808080;fill-opacity:1;fill-rule:nonzero;stroke:none;stroke-width:4.07365"
       id="path79"
       d="m 269.98389,395.80146 c 0,9.29709 0,16.95095 0.48526,21.01901 0.29085,2.80777 0.87176,4.93776 3.77627,5.32426 1.35705,0.19513 3.48655,0.38782 4.35831,0.38782 0.58254,0 0.77604,0.29004 0.77604,0.58098 0,0.48375 -0.48375,0.77452 -1.55003,0.77452 -5.3263,0 -11.42862,-0.29086 -11.91237,-0.29086 -0.48374,0 -6.58709,0.29086 -9.49262,0.29086 -1.06526,0 -1.54901,-0.1935 -1.54901,-0.77452 0,-0.29086 0.1935,-0.58098 0.77449,-0.58098 0.87176,0 2.03377,-0.1931 2.90451,-0.38782 1.93804,-0.38659 2.42178,-2.51649 2.80931,-5.32426 0.48423,-4.06806 0.48423,-11.72192 0.48423,-21.01901 v -17.0457 c 0,-15.1112 0,-17.82222 -0.19349,-20.92173 -0.1935,-3.29204 -1.16201,-4.9393 -3.292,-5.42305 -1.06477,-0.29167 -2.32455,-0.38781 -3.0033,-0.38781 -0.38822,0 -0.77452,-0.19472 -0.77452,-0.58103 0,-0.58151 0.48427,-0.77448 1.549,-0.77448 3.19631,0 9.29966,0.29045 9.7834,0.29045 0.48375,0 6.58607,-0.29045 9.4916,-0.29045 1.06628,0 1.54848,0.19309 1.54848,0.77448 0,0.38659 -0.38618,0.58103 -0.77399,0.58103 -0.67827,0 -1.25978,0.0961 -2.42228,0.29086 -2.61479,0.48374 -3.38927,2.13105 -3.58228,5.52032 -0.19513,3.09952 -0.19513,5.81053 -0.19513,20.92174" />
    <path
       style="fill:#808080;fill-opacity:1;fill-rule:nonzero;stroke:none;stroke-width:4.07365"
       id="path81"
       d="m 346.79203,412.07211 c 5.61809,-12.97662 18.59621,-46.78025 20.72624,-53.75385 0.48374,-1.45327 0.87176,-2.80878 0.87176,-3.68156 0,-0.77448 -0.29086,-1.74197 -1.25978,-2.22572 -1.16201,-0.38781 -2.61528,-0.38781 -3.6785,-0.38781 -0.58253,0 -1.06628,-0.0974 -1.06628,-0.58103 0,-0.58151 0.58098,-0.77448 2.1295,-0.77448 3.87506,0 8.3311,0.29045 9.49311,0.29045 0.58103,0 4.74633,-0.29045 7.55357,-0.29045 1.06782,0 1.6473,0.19309 1.6473,0.67725 0,0.48374 -0.38822,0.67826 -1.16254,0.67826 -0.67671,0 -2.80825,0 -4.64852,1.1625 -1.25978,0.87025 -2.71256,2.51751 -5.32785,9.1031 -1.06473,2.71305 -5.90728,14.33668 -10.84556,26.24856 -5.90883,14.14065 -10.26763,24.60126 -12.49441,29.34657 -2.71252,5.81106 -3.10054,7.36157 -4.06803,7.36157 -1.16356,0 -1.64779,-1.35701 -3.48806,-6.00504 l -23.72954,-59.37194 c -2.12999,-5.42354 -3.58278,-6.48981 -6.97356,-7.45731 -1.45328,-0.38781 -3.10058,-0.38781 -3.68054,-0.38781 -0.58103,0 -0.774,-0.29086 -0.774,-0.67826 0,-0.58253 0.96749,-0.67724 2.51752,-0.67724 4.64905,0 10.16986,0.29045 11.33236,0.29045 0.96904,0 5.3263,-0.29045 9.00786,-0.29045 1.74352,0 2.61479,0.19309 2.61479,0.67724 0,0.48375 -0.29167,0.67826 -0.96904,0.67826 -1.06627,0 -2.80825,0.0961 -3.68001,0.48375 -1.06628,0.48525 -1.25978,1.25977 -1.25978,1.93804 0,1.25823 1.1625,4.26002 2.61529,8.03678" />
    <path
       style="fill:#808080;fill-opacity:1;fill-rule:nonzero;stroke:none;stroke-width:4.07365"
       id="path83"
       d="m 418.95319,378.75576 c 0,-15.1112 0,-17.82222 -0.19472,-20.92173 -0.19309,-3.29204 -0.96749,-4.84207 -4.1638,-5.52033 -0.77603,-0.19472 -2.42179,-0.29086 -3.29355,-0.29086 -0.38822,0 -0.77448,-0.19472 -0.77448,-0.58102 0,-0.58152 0.48525,-0.77448 1.54848,-0.77448 4.3588,0 10.46113,0.29045 10.94589,0.29045 0.67725,0 19.95225,0 22.17797,-0.0974 1.84231,-0.0982 3.39233,-0.29005 4.16836,-0.48322 0.48375,-0.0994 0.86871,-0.48428 1.354,-0.48428 0.29045,0 0.38659,0.38496 0.38659,0.86924 0,0.67977 -0.4822,1.84178 -0.77603,4.55434 -0.0957,0.96749 -0.2876,5.23004 -0.48069,6.39103 -0.0978,0.48529 -0.29493,1.06628 -0.67875,1.06628 -0.58103,0 -0.77452,-0.48526 -0.77452,-1.25978 0,-0.67826 -0.0982,-2.32247 -0.58099,-3.48501 -0.67826,-1.55002 -1.64881,-2.71252 -6.87787,-3.29354 -1.64575,-0.1935 -12.20363,-0.29086 -13.26889,-0.29086 -0.38741,0 -0.58099,0.29086 -0.58099,0.96594 v 26.73435 c 0,0.67981 0.0978,0.96904 0.58099,0.96904 1.25725,0 13.17316,0 15.39737,-0.19513 2.32606,-0.19391 3.68157,-0.38659 4.55333,-1.35551 0.67879,-0.77399 1.06627,-1.25978 1.45429,-1.25978 0.29249,0 0.48122,0.19513 0.48122,0.77453 0,0.58151 -0.48122,2.23032 -0.77298,5.42508 -0.19186,1.93804 -0.38536,5.52081 -0.38536,6.19806 0,0.77399 0,1.83925 -0.67977,1.83925 -0.48375,0 -0.67676,-0.38496 -0.67676,-0.8687 0,-0.97055 0,-1.93804 -0.38822,-3.19782 -0.38822,-1.35551 -1.25977,-3.00179 -5.03552,-3.38928 -2.61683,-0.29208 -12.20518,-0.48529 -13.85142,-0.48529 -0.48375,0 -0.67725,0.29004 -0.67725,0.67981 v 8.52208 c 0,3.29403 -0.0974,14.53018 0,16.56293 0.28923,6.68131 1.74352,7.93954 11.23513,7.93954 2.51902,0 6.78006,0 9.29656,-1.06371 2.51906,-1.06477 3.68156,-3.00281 4.35982,-6.9736 0.1935,-1.06628 0.38496,-1.45429 0.87074,-1.45429 0.58103,0 0.58103,0.77603 0.58103,1.45429 0,0.77603 -0.77453,7.36161 -1.25827,9.39587 -0.67827,2.5165 -1.45275,2.5165 -5.23159,2.5165 -14.6244,0 -21.11319,-0.58151 -23.92149,-0.58151 -0.48476,0 -6.58709,0.29085 -9.4916,0.29085 -1.06628,0 -1.55002,-0.19349 -1.55002,-0.77452 0,-0.29086 0.19349,-0.58098 0.77452,-0.58098 0.87176,0 2.03377,-0.19309 2.90553,-0.38781 1.93702,-0.38659 2.42077,-2.5165 2.80825,-5.32426 0.48529,-4.06807 0.48529,-11.72193 0.48529,-21.01902" />
    <path
       style="fill:#808080;fill-opacity:1;fill-rule:nonzero;stroke:none;stroke-width:4.07365"
       id="path85"
       d="m 507.08607,387.18211 c 0,0.48374 0.19472,0.87025 0.67724,1.1605 1.4543,0.87176 5.90883,1.549 10.17142,1.549 2.3245,0 5.03707,-0.28963 7.26279,-1.83925 3.38927,-2.323 5.90732,-7.55357 5.90732,-14.91518 0,-12.10636 -6.39107,-19.37069 -16.75443,-19.37069 -2.90704,0 -5.51776,0.28923 -6.48831,0.58098 -0.4868,0.19431 -0.77603,0.58103 -0.77603,1.16201 z m -7.74653,-8.42635 c 0,-15.1112 0,-17.82222 -0.19595,-20.92173 -0.19309,-3.29204 -0.969,-4.84207 -4.16376,-5.52033 -0.77603,-0.19472 -2.42333,-0.29086 -3.29354,-0.29086 -0.38659,0 -0.77452,-0.19472 -0.77452,-0.58102 0,-0.58152 0.48529,-0.77448 1.55002,-0.77448 4.35575,0 10.45909,0.29045 10.9459,0.29045 1.06526,0 8.42532,-0.29045 11.42658,-0.29045 6.10335,0 12.59218,0.58098 17.72498,4.26103 2.42024,1.74353 6.68283,6.48831 6.68283,13.17317 0,7.16555 -3.00432,14.33362 -11.71989,22.37248 7.94259,10.16987 14.52969,18.78869 20.14672,24.79529 5.23158,5.51979 9.39383,6.58452 11.8146,6.97409 1.8408,0.28923 3.19782,0.28923 3.77729,0.28923 0.4853,0 0.87176,0.29004 0.87176,0.58098 0,0.58103 -0.57845,0.77452 -2.32299,0.77452 h -6.87633 c -5.42406,0 -7.84532,-0.48529 -10.36336,-1.83774 -4.16681,-2.23032 -7.55609,-6.97662 -13.0754,-14.23944 -4.06803,-5.32732 -8.62135,-11.81611 -10.55686,-14.33567 -0.38903,-0.38577 -0.67826,-0.57947 -1.2608,-0.57947 l -11.91338,-0.19472 c -0.48273,0 -0.67725,0.29248 -0.67725,0.77399 v 2.32605 c 0,9.29709 0,16.95095 0.4853,21.01902 0.29085,2.80776 0.87176,4.93775 3.77627,5.32426 1.35701,0.19513 3.48651,0.38781 4.35827,0.38781 0.58254,0 0.77453,0.29004 0.77453,0.58098 0,0.48375 -0.48375,0.77453 -1.55003,0.77453 -5.32479,0 -11.42862,-0.29086 -11.91237,-0.29086 -0.0974,0 -6.20062,0.29086 -9.1046,0.29086 -1.06376,0 -1.55056,-0.1935 -1.55056,-0.77453 0,-0.29086 0.1935,-0.58098 0.77758,-0.58098 0.87021,0 2.03222,-0.19309 2.90398,-0.38781 1.93804,-0.38659 2.42077,-2.5165 2.80675,-5.32426 0.48835,-4.06807 0.48835,-11.72193 0.48835,-21.01902" />
    <path
       style="fill:#808080;fill-opacity:1;fill-rule:nonzero;stroke:none;stroke-width:4.07365"
       id="path87"
       d="m 587.47649,422.62999 c -1.35701,-0.67725 -1.45429,-1.06526 -1.45429,-3.68156 0,-4.84255 0.38822,-8.71708 0.48578,-10.26609 0.0986,-1.06477 0.29045,-1.55002 0.77554,-1.55002 0.57948,0 0.67875,0.29167 0.67875,1.06627 0,0.87177 0,2.22776 0.29046,3.58278 1.45278,7.16706 7.84536,9.88113 14.33517,9.88113 9.29558,0 13.84992,-6.68332 13.84992,-12.88137 0,-6.68437 -2.81237,-10.5574 -11.13891,-17.43372 l -4.35982,-3.58428 c -10.26609,-8.42838 -12.59214,-14.43294 -12.59214,-21.01852 0,-10.36337 7.75114,-17.43266 20.04948,-17.43266 3.77778,0 6.58608,0.38659 9.00786,0.96594 1.84076,0.38945 2.6163,0.48428 3.39079,0.48428 0.77452,0 0.96802,0.19554 0.96802,0.67977 0,0.48375 -0.38537,3.68005 -0.38537,10.2656 0,1.55157 -0.19594,2.22727 -0.67826,2.22727 -0.58302,0 -0.67875,-0.4822 -0.77603,-1.25673 -0.0974,-1.16404 -0.67827,-3.77831 -1.26129,-4.84405 -0.57797,-1.06477 -3.19325,-5.13382 -12.10485,-5.13382 -6.68131,0 -11.91188,4.16478 -11.91188,11.2346 0,5.52236 2.71102,8.8159 11.8146,16.27321 l 2.71102,2.12901 c 11.43119,9.01038 14.14371,15.01344 14.14371,22.76152 0,3.97181 -1.55153,11.33236 -8.23333,16.07816 -4.16531,2.90606 -9.39588,4.06856 -14.62746,4.06856 -4.54876,0 -9.00737,-0.67826 -12.97714,-2.61528" />
    <path
       style="fill:#808080;fill-opacity:1;fill-rule:nonzero;stroke:none;stroke-width:4.07365"
       id="path89"
       d="m 678.31786,395.80146 c 0,9.29709 0,16.95095 0.48529,21.01901 0.29005,2.80777 0.86973,4.93776 3.77575,5.32426 1.35705,0.19513 3.48554,0.38782 4.3588,0.38782 0.58103,0 0.77555,0.29004 0.77555,0.58098 0,0.48375 -0.4853,0.77452 -1.55158,0.77452 -5.32629,0 -11.42658,-0.29086 -11.91338,-0.29086 -0.48375,0 -6.58555,0.29086 -9.49161,0.29086 -1.06473,0 -1.54847,-0.1935 -1.54847,-0.77452 0,-0.29086 0.19309,-0.58098 0.77603,-0.58098 0.87123,0 2.03377,-0.1931 2.90398,-0.38782 1.93804,-0.38659 2.42178,-2.51649 2.80829,-5.32426 0.48375,-4.06806 0.48375,-11.72192 0.48375,-21.01901 v -17.0457 c 0,-15.1112 0,-17.82222 -0.19309,-20.92173 -0.19187,-3.29204 -1.16099,-4.9393 -3.29098,-5.42305 -1.06628,-0.29167 -2.32455,-0.38781 -3.00432,-0.38781 -0.38659,0 -0.77554,-0.19472 -0.77554,-0.58103 0,-0.58151 0.48476,-0.77448 1.55002,-0.77448 3.19631,0 9.29811,0.29045 9.78185,0.29045 0.4868,0 6.5871,-0.29045 9.49316,-0.29045 1.06473,0 1.55002,0.19309 1.55002,0.77448 0,0.38659 -0.38903,0.58103 -0.77452,0.58103 -0.67827,0 -1.2608,0.0961 -2.4233,0.29086 -2.61528,0.48374 -3.38825,2.13105 -3.58126,5.52032 -0.19472,3.09952 -0.19472,5.81053 -0.19472,20.92174" />
    <path
       style="fill:#808080;fill-opacity:1;fill-rule:nonzero;stroke:none;stroke-width:4.07365"
       id="path91"
       d="m 754.73802,395.80146 c 0,9.29709 0,16.95095 0.48322,21.01901 0.28923,2.80777 0.87331,4.93776 3.77627,5.32426 1.35551,0.19513 3.48806,0.38782 4.35983,0.38782 0.58102,0 0.77603,0.29004 0.77603,0.58098 0,0.48375 -0.48526,0.77452 -1.55052,0.77452 -5.32784,0 -11.43119,-0.29086 -11.91188,-0.29086 -0.48831,0 -6.58709,0.29086 -9.49413,0.29086 -1.06477,0 -1.549,-0.1935 -1.549,-0.77452 0,-0.29086 0.19472,-0.58098 0.77448,-0.58098 0.87176,0 2.03377,-0.1931 2.90402,-0.38782 1.93804,-0.38659 2.42228,-2.51649 2.81029,-5.32426 0.48375,-4.06806 0.48375,-11.72192 0.48375,-21.01901 v -40.97024 l -14.33416,0.19512 c -6.00456,0.0957 -8.32906,0.774 -9.87909,3.09749 -1.06477,1.64575 -1.3555,2.32556 -1.64473,3.00281 -0.29249,0.77704 -0.58253,0.96899 -0.96904,0.96899 -0.29086,0 -0.48526,-0.29085 -0.48526,-0.87176 0,-0.969 1.93499,-9.2981 2.13154,-10.07258 0.1935,-0.58103 0.58099,-1.83926 0.96749,-1.83926 0.67875,0 1.64625,0.96595 4.26153,1.16046 2.80931,0.28964 6.48932,0.4853 7.65186,0.4853 h 36.32115 c 6.19655,0 8.81285,-0.97006 9.58888,-0.97006 0.4822,0 0.4822,0.58253 0.4822,1.16356 0,2.90451 -0.29045,9.58884 -0.29045,10.65361 0,0.87327 -0.28964,1.25823 -0.67875,1.25823 -0.48122,0 -0.67725,-0.28923 -0.77298,-1.64625 l -0.0974,-1.06477 c -0.38536,-2.90553 -2.61528,-5.1328 -11.91338,-5.32577 l -12.20209,-0.19512" />
    <path
       style="fill:#808080;fill-opacity:1;fill-rule:nonzero;stroke:none;stroke-width:4.07365"
       id="path93"
       d="m 831.59557,386.40457 c 0,-7.84638 -1.45429,-11.04265 -3.34243,-15.25582 -1.01792,-2.32402 -20.4874,-34.28995 -25.56981,-41.84351 -3.63471,-5.3762 -7.26584,-9.00737 -9.88267,-10.75191 -2.17839,-1.45328 -4.93979,-2.32504 -6.24796,-2.32504 -0.72409,0 -1.45124,-0.29085 -1.45124,-1.01584 0,-0.58152 0.58253,-1.01793 1.89119,-1.01793 2.75786,0 13.65691,0.43641 14.381,0.43641 1.0174,0 6.53976,-0.43641 12.20519,-0.43641 1.5989,0 1.88659,0.43641 1.88659,1.01793 0,0.582 -0.87022,0.72511 -2.17582,1.30813 -1.16356,0.57947 -1.89221,1.45278 -1.89221,2.61528 0,1.74149 0.72865,3.48656 1.89221,5.66698 2.32349,4.21215 24.116,41.69584 26.73076,45.9095 2.76144,-6.1018 21.21304,-37.92006 24.11755,-42.71474 1.89119,-3.05068 2.47218,-5.52082 2.47218,-7.40895 0,-2.03532 -0.58099,-3.63321 -2.32655,-4.06807 -1.30613,-0.4369 -2.1794,-0.72613 -2.1794,-1.45328 0,-0.58098 0.87327,-0.87278 2.32606,-0.87278 3.77831,0 8.42479,0.43641 9.58986,0.43641 0.87176,0 11.32935,-0.43641 14.09177,-0.43641 1.01637,0 1.88814,0.29168 1.88814,0.87278 0,0.72715 -0.7256,1.16099 -1.88814,1.16099 -1.59585,0 -4.35828,0.58307 -6.68433,2.0343 -2.90301,1.74454 -4.50138,3.48652 -7.6992,7.41148 -4.7957,5.81159 -25.13495,39.95285 -27.75023,46.20081 -2.17838,5.23158 -2.17838,9.735 -2.17838,14.52969 v 12.49592 c 0,2.32198 0,8.4248 0.43641,14.53018 0.28923,4.21215 1.59585,7.40744 5.95465,7.98997 2.03377,0.28923 5.23159,0.57948 6.53972,0.57948 0.87176,0 1.16099,0.43535 1.16099,0.87176 0,0.7256 -0.7256,1.16201 -2.323,1.16201 -7.99299,0 -17.14546,-0.43641 -17.87261,-0.43641 -0.72409,0 -9.87758,0.43641 -14.23895,0.43641 -1.59789,0 -2.32349,-0.29045 -2.32349,-1.16201 0,-0.43641 0.28923,-0.87176 1.16099,-0.87176 1.30813,0 3.05422,-0.29004 4.36133,-0.57948 2.90301,-0.58253 4.21114,-3.77782 4.50191,-7.98997 0.43792,-6.10538 0.43792,-12.2082 0.43792,-14.53018" />
  </g>
</svg>
