<?xml version="1.0" encoding="UTF-8" standalone="no"?>
<svg
   xmlns:dc="http://purl.org/dc/elements/1.1/"
   xmlns:cc="http://creativecommons.org/ns#"
   xmlns:rdf="http://www.w3.org/1999/02/22-rdf-syntax-ns#"
   xmlns:svg="http://www.w3.org/2000/svg"
   xmlns="http://www.w3.org/2000/svg"
   xmlns:sodipodi="http://sodipodi.sourceforge.net/DTD/sodipodi-0.dtd"
   xmlns:inkscape="http://www.inkscape.org/namespaces/inkscape"
   inkscape:version="1.0 (4035a4fb49, 2020-05-01)"
   sodipodi:docname="cima-3.svg"
   id="svg12"
   version="1.1"
   viewBox="0 0 26.98584 7.71024"
   height="100"
   width="350">
  <metadata
     id="metadata18">
    <rdf:RDF>
      <cc:Work
         rdf:about="">
        <dc:format>image/svg+xml</dc:format>
        <dc:type
           rdf:resource="http://purl.org/dc/dcmitype/StillImage" />
        <dc:title></dc:title>
      </cc:Work>
    </rdf:RDF>
  </metadata>
  <defs
     id="defs16" />
  <sodipodi:namedview
     inkscape:current-layer="svg12"
     inkscape:window-maximized="1"
     inkscape:window-y="304"
     inkscape:window-x="-8"
     inkscape:cy="143.7204"
     inkscape:cx="349.0468"
     inkscape:zoom="0.8608"
     showgrid="false"
     id="namedview14"
     inkscape:window-height="705"
     inkscape:window-width="1366"
     inkscape:pageshadow="2"
     inkscape:pageopacity="0"
     guidetolerance="10"
     gridtolerance="10"
     objecttolerance="10"
     borderopacity="1"
     bordercolor="#666666"
     pagecolor="#ffffff" />
  <g
     transform="matrix(0.14545614,0,0,0.14545614,-0.33137874,-10.156378)"
     id="g850">
    <path
       style="clip-rule:evenodd;fill:#808080;fill-rule:evenodd"
       id="path4"
       d="m 52.652,119.307 h 8.77 V 73.45 h -8.77 z m 124.537,0 h 9.896 L 169.044,73.576 h -10.148 l -17.916,45.731 h 9.271 l 3.885,-10.525 h 19.168 z m -20.546,-17.541 7.141,-19.67 7.016,19.67 z"
       fill="#27225b" />
    <path
       style="clip-rule:evenodd;fill:#808080;fill-rule:evenodd"
       id="path6"
       fill="#8b274c"
       d="m 69.817,119.307 c 0,0 9.396,-35.207 9.772,-38.088 0.25,-2.381 -1.503,-2.13 -6.265,-2.13 l 0.125,-3.007 c 0,0 14.158,-2.882 15.16,-3.132 1.503,-0.25 2.255,0.751 2.004,1.629 -0.501,1.879 -4.135,15.661 -4.135,15.661 0,0 11.151,-17.541 19.795,-17.541 4.01,0 7.143,3.759 6.391,7.643 -0.877,3.884 -2.381,9.898 -2.381,9.898 0,0 10.775,-17.541 19.42,-17.541 4.135,0 7.391,3.884 6.641,7.643 -1.002,4.636 -7.518,29.694 -7.77,30.696 -0.75,2.881 0.252,4.01 2.633,2.129 2.004,-1.879 4.51,-5.137 4.51,-5.137 h 3.006 c 0,0 -6.014,12.029 -14.783,12.029 -4.135,0 -5.137,-3.51 -4.635,-6.641 0.5,-2.758 7.516,-28.942 7.893,-30.947 0.627,-2.882 -1.002,-3.508 -3.633,-2.13 -2.131,1.127 -6.266,4.886 -11.402,12.904 -5.764,9.02 -8.77,24.18 -9.146,26.061 h -8.895 c 0,0 8.645,-33.704 9.272,-36.835 0.752,-2.882 -0.752,-3.634 -3.508,-2.13 -2.506,1.378 -6.766,6.39 -11.402,12.904 -4.51,6.641 -9.647,25.434 -9.772,26.061 h -8.895 z" />
    <path
       style="clip-rule:evenodd;fill:#808080;fill-rule:evenodd"
       id="path8"
       fill="#27225b"
       d="m 42.504,111.412 v 7.143 c 0,0 -4.135,1.504 -10.274,1.504 -6.265,0 -26.561,-2.256 -26.561,-23.681 0,-21.299 20.296,-23.679 26.561,-23.679 6.139,0 10.274,1.503 10.274,1.503 v 7.267 c 0,0 -4.135,-1.754 -10.023,-1.754 -2.004,0 -17.54,0.877 -17.54,16.79 0,15.785 15.536,16.537 17.415,16.537 6.014,-0.001 10.148,-1.63 10.148,-1.63 z" />
  </g>
</svg>
