<?xml version="1.0" encoding="UTF-8" standalone="no"?>
<svg
   xmlns:dc="http://purl.org/dc/elements/1.1/"
   xmlns:cc="http://creativecommons.org/ns#"
   xmlns:rdf="http://www.w3.org/1999/02/22-rdf-syntax-ns#"
   xmlns:svg="http://www.w3.org/2000/svg"
   xmlns="http://www.w3.org/2000/svg"
   xmlns:sodipodi="http://sodipodi.sourceforge.net/DTD/sodipodi-0.dtd"
   xmlns:inkscape="http://www.inkscape.org/namespaces/inkscape"
   inkscape:version="1.0 (4035a4fb49, 2020-05-01)"
   sodipodi:docname="training-cspo.svg"
   id="svg93"
   version="1.1"
   width="114"
   viewBox="0 0 114 100"
   height="100">
  <metadata
     id="metadata99">
    <rdf:RDF>
      <cc:Work
         rdf:about="">
        <dc:format>image/svg+xml</dc:format>
        <dc:type
           rdf:resource="http://purl.org/dc/dcmitype/StillImage" />
        <dc:title></dc:title>
      </cc:Work>
    </rdf:RDF>
  </metadata>
  <defs
     id="defs97" />
  <sodipodi:namedview
     inkscape:current-layer="svg93"
     inkscape:window-maximized="1"
     inkscape:window-y="304"
     inkscape:window-x="-8"
     inkscape:cy="40.070361"
     inkscape:cx="35.170249"
     inkscape:zoom="4.3229937"
     showguides="false"
     showgrid="false"
     id="namedview95"
     inkscape:window-height="705"
     inkscape:window-width="1366"
     inkscape:pageshadow="2"
     inkscape:pageopacity="0"
     guidetolerance="10"
     gridtolerance="10"
     objecttolerance="10"
     borderopacity="1"
     bordercolor="#666666"
     pagecolor="#ffffff">
    <sodipodi:guide
       id="guide1012"
       orientation="1,0"
       position="-56.673688,68.308999" />
  </sodipodi:namedview>
  <mask
     fill="#ffffff"
     id="a">
    <path
       id="path2"
       fill-rule="evenodd"
       fill="#ffffff"
       d="m 54.85,1.81 2.58,4.22 4.68,-1.6 1.78,4.61 4.89,-0.75 0.94,4.86 4.94,0.15 0.05,4.94 4.83,1.03 -0.83,4.86 4.58,1.88 -1.69,4.64 4.17,2.66 -2.49,4.27 3.62,3.36 -3.21,3.76 2.97,3.95 -3.84,3.12 2.22,4.42 -4.33,2.39 1.39,4.74 -4.68,1.58 0.51,4.91 -4.88,0.72 -0.38,4.93 -4.93,-0.17 -1.24,4.78 -4.83,-1.05 -2.08,4.49 -4.56,-1.89 -2.85,4.04 -4.15,-2.68 -3.52,3.47 -3.61,-3.38 -4.08,2.79 -2.95,-3.97 -4.52,2.01 -2.19,-4.43 -4.8,1.18 L 21,75.9 16.07,76.2 15.57,71.28 10.66,70.69 11.06,65.77 6.33,64.31 7.59,59.53 3.21,57.26 5.31,52.78 1.39,49.76 4.26,45.73 0.94,42.06 4.48,38.61 1.88,34.4 5.98,31.64 4.17,27.04 8.69,25.05 7.73,20.2 l 4.81,-1.15 -0.07,-4.94 4.93,-0.28 0.81,-4.87 4.9,0.61 1.66,-4.65 4.72,1.47 2.47,-4.28 4.38,2.29 3.19,-3.77 3.9,3.04 3.82,-3.14 3.29,3.69 z" />
  </mask>
  <g
     transform="matrix(1.1302843,0,0,1.1302843,-0.02735971,-0.13028434)"
     id="g1010">
    <path
       style="fill:#4d4d4d;fill-rule:nonzero"
       id="path5"
       fill="#f06624"
       d="M 98.82,59.4 H 51.23 49.2 1.6 l 5.08,6.62 -5.08,7.07 h 47.6 2.03 47.59 l -5.08,-6.62 z" />
    <path
       style="fill:#808080;fill-rule:nonzero"
       id="path7"
       fill="#ffffff"
       d="M 100.21,73.78 H 0.26 L 5.82,66 0.21,58.72 h 100 L 94.6,66.46 Z M 2.94,72.41 h 94.49 l -4.54,-5.92 4.59,-6.4 H 3 L 7.53,66 Z" />
    <path
       style="fill:#4d4d4d;fill-rule:nonzero"
       id="path9"
       fill="#f06624"
       d="m 60.85,2.81 2.58,4.22 4.68,-1.6 1.78,4.61 4.89,-0.75 0.94,4.86 4.94,0.15 0.05,4.94 4.83,1.03 -0.83,4.86 4.58,1.88 -1.69,4.64 4.17,2.66 -2.49,4.27 3.62,3.36 -3.21,3.76 2.97,3.95 -3.84,3.12 2.22,4.42 -4.33,2.39 1.39,4.74 -4.68,1.58 0.51,4.91 -4.88,0.72 -0.38,4.93 -4.93,-0.17 -1.24,4.78 -4.83,-1.05 -2.08,4.49 -4.56,-1.89 -2.85,4.04 -4.15,-2.68 -3.52,3.47 -3.61,-3.38 -4.08,2.79 -2.95,-3.97 -4.52,2.01 -2.19,-4.43 -4.8,1.18 -1.36,-4.75 -4.93,0.3 -0.5,-4.92 -4.91,-0.59 0.4,-4.92 -4.73,-1.46 1.26,-4.78 -4.38,-2.27 2.1,-4.48 -3.92,-3.02 2.87,-4.03 -3.32,-3.67 3.54,-3.45 -2.6,-4.21 4.1,-2.76 -1.81,-4.6 4.52,-1.99 -0.96,-4.85 4.81,-1.15 -0.07,-4.94 4.93,-0.28 0.81,-4.87 4.9,0.61 1.66,-4.65 4.72,1.47 2.47,-4.28 4.38,2.29 3.19,-3.77 3.9,3.04 3.82,-3.14 3.29,3.69 z" />
    <g
       style="fill:#808080;fill-rule:nonzero"
       id="g55"
       transform="translate(6,1)"
       fill="#ffffff">
      <path
         id="path11"
         d="m 44.52,87 -3.66,-3.4 -4.14,2.82 -3,-4 -4.57,2 -2.21,-4.42 -4.86,1.2 -1.38,-4.87 -5,0.3 -0.5,-5 -5,-0.59 0.4,-5 L 5.81,64.57 7.09,59.73 2.67,57.44 4.8,52.91 0.8,49.84 3.7,45.76 0.37,42.05 4,38.54 1.32,34.28 l 4.15,-2.8 -1.83,-4.66 4.58,-2 -1,-4.92 4.88,-1.16 -0.08,-5 5,-0.28 0.82,-4.94 5,0.62 1.68,-4.71 4.78,1.47 2.5,-4.34 4.44,2.33 3.23,-3.83 4,3.09 L 47.29,0 50.62,3.74 55,1.26 l 2.61,4.27 4.74,-1.62 1.81,4.67 5,-0.75 1,4.92 5,0.15 0.06,5 4.89,1 -0.84,4.94 4.64,1.9 -1.71,4.7 4.22,2.7 -2.62,4.36 3.67,3.41 -3.25,3.81 3,4 -3.88,3.16 2.25,4.48 -4.39,2.42 1.4,4.8 -4.74,1.6 0.52,5 -4.95,0.73 -0.37,5 -5,-0.17 -1.26,4.82 -4.9,-1.06 -2.1,4.5 -4.63,-1.92 -2.88,4.1 -4.21,-2.71 z m -3.58,-4.47 3.56,3.33 3.5,-3.4 4.1,2.64 2.81,-4 4.47,1.9 2.05,-4.43 4.77,1 1.22,-4.72 4.87,0.16 0.37,-4.86 4.82,-0.71 -0.48,-4.83 4.62,-1.55 -1.37,-4.68 4.24,-2.38 -2.18,-4.36 3.78,-3.08 -2.93,-3.9 3.17,-3.66 -3.57,-3.31 2.45,-4.22 -4.11,-2.65 1.67,-4.58 -4.52,-1.85 0.82,-4.8 -4.77,-1 V 13.72 L 69.43,13.57 68.5,8.78 63.68,9.51 61.87,5 57.26,6.57 54.71,2.36 50.45,4.74 47.2,1.1 43.44,4.2 39.59,1.2 36.44,4.92 32.12,2.66 29.69,6.88 25,5.43 23.39,10 18.55,9.4 l -0.8,4.81 -4.87,0.27 0.12,4.9 -4.75,1.13 0.95,4.78 -4.46,2 1.78,4.54 -4,2.72 L 5,38.67 1.51,42.08 4.78,45.7 2,49.68 l 3.86,3 -2.11,4.39 4.32,2.25 -1.24,4.68 4.66,1.44 -0.38,4.86 4.84,0.58 0.49,4.85 4.87,-0.29 1.34,4.69 4.74,-1.13 2.16,4.37 4.45,-2 2.91,3.92 z"
         style="fill:#808080" />
      <path
         id="path13"
         d="M 44.15,80.59 C 40.953872,80.584374 37.771518,80.171038 34.68,79.36 16.514401,74.636133 4.6936018,57.143535 7.086655,38.526951 9.4797083,19.910367 25.340255,5.9760445 44.11,6 47.305713,6.00214 50.488088,6.4121217 53.58,7.22 71.692671,11.990872 83.455754,29.457433 81.067391,48.034994 78.679029,66.612555 62.880427,80.535738 44.15,80.57 Z m 0,-73.2 C 25.189786,7.3820429 9.4827177,22.100466 8.2597725,41.0212 7.0368273,59.941935 20.718462,76.559902 39.521939,78.992808 58.325417,81.425714 75.785972,68.837109 79.418838,50.228185 83.051704,31.61926 71.607876,13.387892 53.27,8.57 50.280187,7.7840262 47.201396,7.3874135 44.11,7.39 Z"
         style="fill:#808080" />
      <g
         id="g27"
         mask="url(#a)"
         style="fill:#808080">
        <g
           id="g25"
           transform="translate(-34,-19)"
           style="fill:#808080">
          <path
             id="path15"
             opacity="0.3"
             d="M 75.82,23.46 C 70.871703,15.343186 61.52066,11.007044 52.128304,12.474 42.735948,13.940956 35.152498,20.92203 32.91496,30.161172 30.677423,39.400314 34.226575,49.077485 41.907052,54.679143 49.58753,60.280802 59.886339,60.703466 68,55.75 79.058015,48.979634 82.555127,34.539513 75.82,23.46 Z"
             style="fill:#808080" />
          <path
             id="path17"
             opacity="0.2"
             d="M 97.11,49 C 92.382761,41.214165 83.429295,37.044577 74.427785,38.436997 65.426275,39.829416 58.151096,46.50937 55.997248,55.359622 53.8434,64.209873 57.23545,73.485864 64.590479,78.858904 71.945509,84.231944 81.813696,84.642901 89.59,79.9 100.17887,73.428797 103.54109,59.613276 97.11,49 Z"
             style="fill:#808080" />
          <path
             id="path19"
             opacity="0.4"
             d="M 104.74,81 C 98.576148,70.872595 85.370284,67.658143 75.241509,73.819746 65.112735,79.981348 61.89535,93.186498 68.054702,103.31664 74.214055,113.44678 87.418489,116.6671 97.55,110.51 107.66862,104.33494 110.88415,91.137416 104.74,81 Z"
             style="fill:#808080" />
          <path
             id="path21"
             opacity="0.2"
             d="M 45.31,11.93 C 38.27822,0.42159231 23.262835,-3.2316445 11.73,3.76 0.21323825,10.780903 -3.4424843,25.80203 3.56,37.33 10.581072,48.845521 25.598515,52.50482 37.13,45.51 48.641976,38.481561 52.299864,23.465438 45.31,11.93 Z"
             style="fill:#808080" />
          <path
             id="path23"
             opacity="0.29"
             d="m 96,113.49 c -4.226512,-6.95475 -12.226504,-10.67845 -20.269185,-9.43456 -8.042681,1.2439 -14.54397,7.21039 -16.471996,15.11701 -1.928027,7.90663 1.096953,16.1961 7.664241,21.00263 6.567288,4.80653 15.383397,5.18342 22.33694,0.95492 9.487569,-5.77592 12.50378,-18.14505 6.74,-27.64 z"
             style="fill:#808080" />
        </g>
      </g>
      <path
         id="path29"
         d="m 21.65,23.68 c 0.543623,-0.03203 1.059441,-0.251077 1.46,-0.62 0.163935,-0.130448 0.265836,-0.323519 0.281033,-0.53247 C 23.406229,22.318578 23.333336,22.112795 23.19,21.96 22.43,21.23 20.65,23.34 19.35,22.1 19.016273,21.742138 18.842622,21.26383 18.869033,20.775218 18.895444,20.286606 19.119642,19.829804 19.49,19.51 c 0.429808,-0.478841 1.028294,-0.772708 1.67,-0.82 l 0.3,0.93 c -0.476068,0.04667 -0.922976,0.25077 -1.27,0.58 -0.164457,0.133035 -0.268692,0.326466 -0.289368,0.536982 -0.02068,0.210515 0.04394,0.420529 0.179368,0.583018 0.75,0.72 2.48,-1.44 3.83,-0.15 0.347911,0.34665 0.534144,0.823542 0.513224,1.314227 -0.02092,0.490684 -0.24707,0.949994 -0.623224,1.265773 -0.51724,0.558518 -1.238948,0.883287 -2,0.9 z"
         style="fill:#808080" />
      <path
         id="path31"
         d="M 24.36,17.39 C 24.814107,17.004543 25.408867,16.82684 26,16.9 l 0.08,0.85 c -0.40879,-0.04644 -0.819938,0.06439 -1.15,0.31 -0.277066,0.205703 -0.456771,0.516793 -0.496541,0.859573 -0.03977,0.342779 0.06393,0.686751 0.286541,0.950427 0.206731,0.283362 0.520687,0.469472 0.868499,0.514839 0.347812,0.04537 0.699003,-0.05399 0.971501,-0.274839 0.346606,-0.30633 0.576312,-0.723334 0.65,-1.18 l 0.78,0.34 c -0.09008,0.636147 -0.43249,1.209237 -0.95,1.59 -0.616711,0.519472 -1.468192,0.65994 -2.219078,0.36608 C 24.070036,20.93222 23.540075,20.251123 23.439771,19.451046 23.339467,18.650969 23.684893,17.860127 24.34,17.39 Z"
         style="fill:#808080" />
      <path
         id="path33"
         d="m 26.61,15.92 0.87,-0.51 0.37,0.62 c 0.04939,0.08695 0.09282,0.177162 0.13,0.27 -0.179115,-0.608029 0.06042,-1.261678 0.59,-1.61 0.05771,-0.03155 0.117909,-0.05831 0.18,-0.08 l 0.52,0.88 c -0.07692,0.03304 -0.150576,0.07322 -0.22,0.12 -0.460554,0.274409 -0.678245,0.824798 -0.53,1.34 0.05195,0.222702 0.139766,0.435477 0.26,0.63 l 0.87,1.42 -0.9,0.53 z"
         style="fill:#808080" />
      <path
         id="path35"
         d="m 29.51,14.23 1,-0.41 1,2.29 c 0.2,0.47 0.45,0.73 0.93,0.53 0.3125,-0.156897 0.546483,-0.435699 0.646787,-0.770679 C 33.187092,15.53434 33.144843,15.172825 32.97,14.87 l -0.75,-1.77 1,-0.41 1.64,3.86 -0.92,0.4 -0.19,-0.44 c -0.06,-0.15 -0.1,-0.28 -0.1,-0.28 -0.04394,0.610314 -0.432122,1.14212 -1,1.37 -0.82,0.35 -1.52,0.16 -2,-0.9 z"
         style="fill:#808080" />
      <path
         id="path37"
         d="m 34.42,12.15 1,-0.2 0.1,0.47 v 0.29 c 0.157064,-0.560468 0.60441,-0.992519 1.17,-1.13 0.544381,-0.158879 1.123831,0.09913 1.37,0.61 0.15928,-0.615408 0.663766,-1.080787 1.29,-1.19 0.85,-0.18 1.44,0.21 1.66,1.29 l 0.54,2.71 -1,0.21 L 40,12.73 c -0.1,-0.47 -0.26,-0.8 -0.73,-0.71 -0.506314,0.137889 -0.842512,0.616971 -0.8,1.14 -0.0032,0.185128 0.01694,0.369922 0.06,0.55 l 0.37,1.81 -1,0.21 -0.5,-2.46 c -0.09,-0.44 -0.24,-0.81 -0.72,-0.71 -0.511054,0.140955 -0.853282,0.620909 -0.82,1.15 -0.0031,0.181823 0.01703,0.363299 0.06,0.54 l 0.37,1.81 -1,0.2 z"
         style="fill:#808080" />
      <path
         id="path39"
         d="m 47.08,13.7 -2,-0.14 -0.64,1.44 -1.1,-0.08 2.47,-5.69 1.1,0.08 1.65,6 -1.09,-0.08 z m -0.79,-3.4 c 0,0 -0.18,0.57 -0.31,0.89 l -0.63,1.52 1.53,0.11 -0.41,-1.6 C 46.38,10.89 46.3,10.3 46.3,10.3 Z"
         style="fill:#808080" />
      <path
         id="path41"
         d="m 49.81,9.71 1,0.19 -0.81,4.31 c -0.09,0.45 0,0.59 0.31,0.65 h 0.16 l -0.18,0.9 h -0.32 c -0.57,-0.11 -1.25,-0.39 -1,-1.58 z"
         style="fill:#808080" />
      <path
         id="path43"
         d="m 52.32,10.24 1,0.28 -1.15,4.23 c -0.12,0.44 0,0.59 0.26,0.67 h 0.16 l -0.24,0.88 c -0.111717,-0.009 -0.222262,-0.02911 -0.33,-0.06 -0.55,-0.16 -1.2,-0.49 -0.89,-1.65 z"
         style="fill:#808080" />
      <path
         id="path45"
         d="m 54.27,12.53 1,0.35 -1.39,4 -1,-0.35 z m 0.55,-1.53 1,0.34 -0.31,0.88 -1,-0.35 z"
         style="fill:#808080" />
      <path
         id="path47"
         d="m 57.73,15.65 0.13,0.06 v -0.06 c 0.09898,-0.184295 0.110349,-0.4032 0.03099,-0.596756 C 57.811633,14.859687 57.649867,14.711767 57.45,14.65 57.063357,14.49397 56.64084,14.448947 56.23,14.52 v -0.85 c 0.581073,-0.100774 1.179118,-0.01684 1.71,0.24 0.4426,0.15071 0.794999,0.490844 0.961285,0.92783 C 59.067572,15.274815 59.030442,15.763178 58.8,16.17 l -1.14,2.37 -0.87,-0.41 0.15,-0.31 c 0.04242,-0.09083 0.0926,-0.177816 0.15,-0.26 -0.424822,0.32285 -0.998441,0.369676 -1.47,0.12 C 55.276405,17.547972 55.002891,17.279452 54.864554,16.938348 54.726218,16.597243 54.73543,16.214062 54.89,15.88 c 0.56,-1.22 2.23,-0.53 2.84,-0.23 z M 56.19,17 c 0.528924,0.17131 1.102016,-0.08292 1.33,-0.59 v -0.09 l -0.16,-0.08 c -0.49,-0.23 -1.3,-0.54 -1.55,0 -0.05978,0.150785 -0.05248,0.319894 0.02006,0.464971 C 55.902597,16.850047 56.033507,16.957349 56.19,17 Z"
         style="fill:#808080" />
      <path
         id="path49"
         d="m 60.61,15.37 0.83,0.56 -0.28,0.41 c -0.05193,0.07688 -0.10871,0.150359 -0.17,0.22 0.548775,-0.293761 1.217332,-0.247117 1.72,0.12 0.37462,0.20639 0.629275,0.578094 0.686449,1.001967 C 63.453622,18.10584 63.30655,18.531731 63,18.83 l -1.52,2.23 -0.86,-0.58 1.4,-2.06 c 0.29,-0.42 0.37,-0.78 -0.07,-1.08 -0.432717,-0.294792 -1.008609,-0.266201 -1.41,0.07 -0.151698,0.1191 -0.280461,0.264806 -0.38,0.43 l -1.08,1.59 -0.87,-0.59 z"
         style="fill:#808080" />
      <path
         id="path51"
         d="m 66.37,19.68 c 0.458528,0.391181 0.730838,0.957585 0.75,1.56 L 66.3,21.45 C 66.27616,21.041714 66.101537,20.656831 65.81,20.37 65.272109,19.902787 64.45944,19.951121 63.980722,20.478799 63.502004,21.006477 63.532781,21.82 64.05,22.31 c 0.350108,0.301418 0.798043,0.46495 1.26,0.46 l -0.21,0.81 c -0.644799,0.01606 -1.268715,-0.229178 -1.73,-0.68 -0.575198,-0.535898 -0.820804,-1.337953 -0.644301,-2.104038 0.176503,-0.766085 0.7483,-1.379814 1.5,-1.61 C 64.9774,18.955775 65.794802,19.144102 66.37,19.68 Z"
         style="fill:#808080" />
      <path
         id="path53"
         d="m 69.45,23.06 c 0.339607,0.396145 0.4906,0.920165 0.413855,1.436279 -0.07675,0.516115 -0.373677,0.973529 -0.813855,1.253721 -0.09,0.08 -0.33,0.24 -0.33,0.24 l -1.81,-2.27 c -0.480303,0.444501 -0.515892,1.19187 -0.08,1.68 0.292772,0.334564 0.685479,0.56598 1.12,0.66 l -0.34,0.78 C 67.007525,26.717763 66.468496,26.384416 66.09,25.9 65.695489,25.450628 65.504918,24.857817 65.563668,24.262735 65.622418,23.667652 65.925232,23.123552 66.4,22.76 66.834053,22.371442 67.411162,22.18272 67.990927,22.239746 68.570692,22.296772 69.09997,22.594319 69.45,23.06 Z m -0.81,1.68 c 0.191662,-0.129515 0.318806,-0.334794 0.349378,-0.564083 C 69.01995,23.946628 68.951032,23.715207 68.8,23.54 68.487867,23.138565 67.924174,23.035294 67.49,23.3 Z"
         style="fill:#808080" />
    </g>
    <path
       style="fill:#4d4d4d;fill-rule:nonzero"
       id="path57"
       fill="#f06624"
       d="M 90.15,66.19 C 83.67,58.79 67.08,56.08 50.23,56.06 h -0.38 c -16.85,0 -32.69,1.85 -39.17,9.25 0,4.12 4.78,11.28 6.52,10.25 7.54,-4.49 18.93,-5.38 32.84,-5.4 12.41,0 25.65,2.61 33.26,6.12 2.88,1.33 6.85,-5.97 6.85,-10.09 z" />
    <g
       style="fill:#808080;fill-rule:nonzero"
       id="g87"
       fill="#ffffff"
       transform="translate(0,1)">
      <path
         id="path59"
         d="m 84,76.13 c -0.34613,-0.0027 -0.687462,-0.08123 -1,-0.23 -7.81,-3.6 -21.06,-6 -33,-6.05 -12.26,0 -24.7,0.67 -32.48,5.3 -0.221754,0.127988 -0.473987,0.193638 -0.73,0.19 -2.49,0 -6.83,-7 -6.83,-11 v -0.26 l 0.17,-0.19 c 5.64,-6.44 18.25,-9.46 39.69,-9.49 h 0.38 c 11.72,0 32.57,1.39 40.44,10.37 l 0.17,0.2 v 0.25 c -0.144033,2.428888 -0.867535,4.787986 -2.11,6.88 -1.43,2.55 -3.15,4.03 -4.7,4.03 z M 50,68.47 c 12.1,0 25.58,2.51 33.56,6.19 0.135566,0.05942 0.281984,0.09006 0.43,0.09 1,0 2.34,-1.28 3.51,-3.35 1.07729,-1.833487 1.73632,-3.882285 1.93,-6 C 83.82,59.26 69.55,55.72 50.2,55.69 h -0.38 c -20.5,0 -33.09,2.92 -38.48,8.83 0.18,3.79 4.2,9.4 5.45,9.4 7.68,-4.48 18.84,-5.43 33.21,-5.45 z"
         style="fill:#808080" />
      <path
         id="path61"
         d="m 23.51,60.19 c 1.11,-0.26 3.19,-0.26 3.49,1.06 l 0.19,0.8 -1.07,0.24 L 26,61.83 c -0.16,-0.68 -1.4,-0.76 -2.22,-0.57 -0.797875,0.187387 -1.484347,0.693048 -1.899892,1.399475 C 21.464562,63.365902 21.356127,64.211585 21.58,65 c 0.149978,0.830255 0.627761,1.565225 1.325677,2.039281 0.697916,0.474057 1.557242,0.647311 2.384323,0.480719 0.975396,-0.232666 1.815551,-0.849261 2.33,-1.71 l 0.82,0.69 c -0.637264,1.076706 -1.689778,1.843486 -2.91,2.12 -1.128596,0.274991 -2.320637,0.07261 -3.295233,-0.55946 C 21.26017,67.428471 20.589214,66.422619 20.38,65.28 20.095636,64.188565 20.268879,63.028357 20.859678,62.067601 21.450476,61.106846 22.407682,60.428721 23.51,60.19 Z"
         style="fill:#808080" />
      <path
         id="path63"
         d="m 29.44,60.22 -0.76,0.1 -0.14,-1 4.91,-0.64 c 0.53,-0.07 0.79,0.12 0.85,0.66 l 0.14,1.05 -1.07,0.14 L 33.3,60 C 33.299269,59.92619 33.26462,59.856821 33.20604,59.81191 33.147456,59.767 33.071469,59.751543 33,59.77 l -2.37,0.31 0.37,2.6 2.92,-0.39 0.13,1 -2.92,0.38 0.32,2.43 c 0.0037,0.07203 0.03959,0.138586 0.09776,0.18124 0.05816,0.04265 0.132429,0.05689 0.202242,0.03876 L 34.15,66 c 0.07298,0.0025 0.14283,-0.02973 0.188206,-0.08694 0.04538,-0.05721 0.06089,-0.132577 0.04179,-0.20306 l -0.07,-0.53 1.09,-0.15 0.13,1.06 c 0.07,0.53 -0.12,0.78 -0.65,0.85 l -3.72,0.49 c -0.53,0.07 -0.78,-0.12 -0.85,-0.66 z"
         style="fill:#808080" />
      <path
         id="path65"
         d="m 36.85,59.36 h -0.77 l -0.06,-1 3.66,-0.22 c 0.669757,-0.08913 1.345476,0.11432 1.854675,0.558433 0.509198,0.444113 0.802605,1.08591 0.805325,1.761567 0.152146,0.999259 -0.402548,1.972043 -1.34,2.35 0.158064,0.07819 0.287512,0.204137 0.37,0.36 l 1.13,2 c 0.14,0.25 0.33,0.26 0.61,0.24 h 0.16 l 0.06,1 h -0.59 c -0.65,0 -0.89,0 -1.2,-0.56 l -1.27,-2.2 c -0.24,-0.38 -0.4,-0.43 -0.86,-0.4 l -1.1,0.06 0.2,3.34 -1.19,0.07 z m 2.91,2.86 c 0.405543,3.51e-4 0.790401,-0.17899 1.050972,-0.489744 C 41.071542,61.419502 41.181044,61.009272 41.11,60.61 41.133703,60.213068 40.979893,59.826111 40.690162,59.553764 40.400431,59.281417 40.004709,59.151814 39.61,59.2 l -1.61,0.1 0.18,3 z"
         style="fill:#808080" />
      <path
         id="path67"
         d="m 46.54,59 h -1.7 c -0.07159,-0.01015 -0.143783,0.01396 -0.194911,0.06509 -0.05113,0.05113 -0.07524,0.123321 -0.06509,0.194911 v 0.54 h -1.07 v -1.11 c 0,-0.53 0.18,-0.71 0.72,-0.71 L 50,58 c 0.53,0 0.71,0.19 0.71,0.72 v 1.11 H 49.68 V 59.3 C 49.69015,59.22841 49.66604,59.156217 49.61491,59.105089 49.563783,59.053962 49.49159,59.029853 49.42,59.04 h -1.69 v 7.39 H 46.5 Z"
         style="fill:#808080" />
      <path
         id="path69"
         d="m 51.64,65.49 0.82,0.05 0.32,-6.36 h -0.82 v -1 l 2.78,0.14 v 1 h -0.83 l -0.32,6.36 h 0.82 v 1 l -2.77,-0.14 z"
         style="fill:#808080" />
      <path
         id="path71"
         d="m 57,59.43 -0.77,-0.07 0.09,-1 4.62,0.4 c 0.54,0.05 0.74,0.29 0.69,0.83 l -0.09,1.05 -1.08,-0.09 V 60.01 C 60.47595,59.93915 60.4575,59.864927 60.41025,59.809787 60.362985,59.754647 60.292456,59.725068 60.22,59.73 l -2.08,-0.18 -0.24,2.75 2.86,0.25 -0.09,1 -2.86,-0.24 -0.31,3.58 -1.19,-0.1 z"
         style="fill:#808080" />
      <path
         id="path73"
         d="m 62.05,66.3 0.81,0.09 0.76,-6.32 -0.81,-0.07 0.12,-1 2.76,0.33 -0.12,1 -0.82,-0.1 -0.75,6.3 0.81,0.1 -0.12,1 -2.76,-0.34 z"
         style="fill:#808080" />
      <path
         id="path75"
         d="M 67.73,60.59 67,60.48 l 0.15,-1 4.89,0.75 c 0.53,0.09 0.72,0.34 0.64,0.87 l -0.16,1 -1.1,-0.1 0.08,-0.53 C 71.51813,61.40019 71.5039,61.325922 71.46124,61.267758 71.418586,61.209593 71.352034,61.173696 71.28,61.17 l -2.37,-0.37 -0.4,2.61 2.91,0.45 -0.16,1 -2.91,-0.45 -0.35,2.4 c -0.01454,0.06946 0.0011,0.141834 0.04309,0.199064 0.04197,0.05723 0.106283,0.09392 0.176905,0.100936 l 2.43,0.37 c 0.06981,0.01813 0.144078,0.0039 0.202243,-0.03876 0.05816,-0.04265 0.09406,-0.109206 0.09776,-0.18124 l 0.08,-0.53 1.08,0.17 -0.16,1 c 0.0047,0.214904 -0.0956,0.418621 -0.26875,0.545997 C 71.5081,68.573372 71.283767,68.608446 71.08,68.54 L 67.36,68 c -0.53,-0.09 -0.72,-0.34 -0.64,-0.87 z"
         style="fill:#808080" />
      <path
         id="path77"
         d="m 74.94,61.75 -0.76,-0.15 0.2,-1 3.35,0.66 c 1.475507,0.292958 2.68264,1.350835 3.166685,2.775141 0.484045,1.424305 0.171462,2.998652 -0.82,4.13 C 79.085223,69.296488 77.565507,69.812958 76.09,69.52 l -1.83,-0.37 c -0.21733,0 -0.42028,-0.108616 -0.540833,-0.289445 C 73.598615,68.679726 73.576412,68.450612 73.66,68.25 Z m 0.19,6.53 1.08,0.21 c 1.723128,0.342416 3.397583,-0.776872 3.74,-2.5 0.342416,-1.723128 -0.776872,-3.397584 -2.5,-3.74 L 76.11,62 74.93,68 c -0.01154,0.06377 0.0032,0.129501 0.04087,0.182237 0.03767,0.05274 0.09506,0.088 0.159132,0.09776 z"
         style="fill:#808080" />
      <path
         id="path79"
         d="m 32.45,32.51 c 1.7,0 5,0.71 5,3 V 37 h -2.2 v -0.75 c 0,-1 -1.59,-1.42 -2.74,-1.42 -1.171131,-0.0256 -2.29878,0.443756 -3.105888,1.292743 C 28.597003,36.97173 28.185244,38.12166 28.27,39.29 c -0.05417,1.194457 0.370315,2.361187 1.179374,3.241578 0.809058,0.88039 1.935854,1.401716 3.130626,1.448422 1.513961,-0.02379 2.955023,-0.654251 4,-1.75 l 1.29,1.75 c -1.390268,1.462659 -3.322041,2.287461 -5.34,2.28 -1.851861,0.04117 -3.637444,-0.689597 -4.929089,-2.017279 C 26.309266,42.915039 25.627898,41.110028 25.72,39.26 25.672979,37.459277 26.366251,35.71801 27.638097,34.442384 28.909943,33.166758 30.649145,32.468322 32.45,32.51 Z"
         style="fill:#808080" />
      <path
         id="path81"
         d="m 40.38,42.45 c 0.835693,0.909339 1.987975,1.464009 3.22,1.55 0.463115,0.05894 0.929981,-0.07632 1.289865,-0.373699 C 45.249748,43.328924 45.470586,42.895923 45.5,42.43 c 0,-2.26 -6.24,-2.08 -6.24,-6.2 0,-2.15 1.87,-3.74 4.43,-3.74 1.55,0 3.94,0.73 3.94,2.62 v 1.23 h -2.2 v -0.6 c 0,-0.61 -0.88,-1 -1.76,-1 -1.12,0 -1.94,0.58 -1.94,1.42 0,2.25 6.27,1.84 6.27,6.16 0,2.11 -1.63,3.9 -4.41,3.9 -1.734501,0.0085 -3.391411,-0.718217 -4.56,-2 z"
         style="fill:#808080" />
      <path
         id="path83"
         d="m 50.5,34.81 h -1.21 v -2.07 h 6.07 c 1.149036,-0.04756 2.26434,0.3944 3.068903,1.216121 0.804562,0.821721 1.222895,1.946102 1.151097,3.093879 0.07361,1.153729 -0.342081,2.285112 -1.145153,3.116729 C 57.631776,40.998346 56.515596,41.453287 55.36,41.42 H 53 V 46 h -2.5 z m 4.41,4.52 c 0.605542,0.03598 1.196158,-0.196768 1.614365,-0.636175 C 56.942572,38.254419 57.145851,37.653024 57.08,37.05 57.151363,36.465156 56.961221,35.878602 56.560312,35.446853 56.159403,35.015105 55.58852,34.782095 55,34.81 h -2 v 4.52 z"
         style="fill:#808080" />
      <path
         id="path85"
         d="m 67.37,32.51 c 1.813252,-0.04068 3.56553,0.655498 4.856468,1.929474 1.290937,1.273977 2.010231,3.016895 1.993532,4.830526 0.09594,2.511504 -1.189224,4.874399 -3.349667,6.158667 -2.160442,1.284268 -4.850224,1.284268 -7.010666,0 C 61.699224,44.144399 60.414058,41.781504 60.51,39.27 60.493222,37.454593 61.213877,35.710093 62.507009,34.435811 63.800141,33.16153 65.555035,32.466568 67.37,32.51 Z m 0,11.43 c 1.194861,-0.03612 2.324944,-0.551452 3.135686,-1.429913 C 71.316429,41.631626 71.739645,40.463918 71.68,39.27 c 0.07662,-1.59116 -0.728645,-3.095366 -2.095275,-3.913892 -1.366629,-0.818525 -3.07282,-0.818525 -4.43945,0 C 63.778645,36.174634 62.973379,37.67884 63.05,39.27 c -0.05687,1.194885 0.36864,2.36253 1.18096,3.240664 0.812321,0.878134 1.94335,1.393139 3.13904,1.429336 z"
         style="fill:#808080" />
    </g>
    <path
       style="fill:#808080;fill-rule:nonzero"
       id="path89"
       fill="#f06624"
       d="m 76.69,78.25 c 0.280345,-4e-4 0.555996,0.07196 0.8,0.21 0.255354,0.135697 0.464303,0.344646 0.6,0.6 0.144561,0.245421 0.220542,0.525168 0.22,0.81 -9.93e-4,0.283335 -0.07321,0.561873 -0.21,0.81 -0.144539,0.246084 -0.351522,0.449617 -0.6,0.59 -0.245031,0.145485 -0.525038,0.221536 -0.81,0.22 -0.28184,0.0018 -0.558687,-0.07438 -0.8,-0.22 -0.252874,-0.134469 -0.4613,-0.339421 -0.6,-0.59 -0.279452,-0.503846 -0.279452,-1.116154 0,-1.62 0.142134,-0.253943 0.353743,-0.462083 0.61,-0.6 0.240882,-0.136798 0.512986,-0.209129 0.79,-0.21 z m 0,0.32 c -0.224431,4.72e-4 -0.444918,0.05904 -0.64,0.17 -0.206906,0.108438 -0.37732,0.275374 -0.49,0.48 -0.226207,0.403812 -0.226207,0.896188 0,1.3 0.10595,0.206199 0.273801,0.37405 0.48,0.48 0.197287,0.114453 0.42194,0.173208 0.65,0.17 0.224863,0.0029 0.446219,-0.05589 0.64,-0.17 0.206199,-0.10595 0.37405,-0.273801 0.48,-0.48 0.240803,-0.39988 0.240803,-0.90012 0,-1.3 -0.111807,-0.201858 -0.278142,-0.368193 -0.48,-0.48 -0.193092,-0.106953 -0.409316,-0.165299 -0.63,-0.17 z M 76,80.74 V 79 h 0.9 c 0.09362,0.006 0.185251,0.02976 0.27,0.07 0.06767,0.04123 0.122947,0.09996 0.16,0.17 0.04412,0.07241 0.06827,0.155221 0.07,0.24 -1.22e-4,0.119504 -0.04675,0.234269 -0.13,0.32 -0.09102,0.09325 -0.210788,0.153136 -0.34,0.17 l 0.12,0.06 c 0.04463,0.03882 0.08487,0.08241 0.12,0.13 l 0.13,0.21 0.2,0.35 H 77 L 76.85,80.44 C 76.79723,80.303924 76.715312,80.181048 76.61,80.08 76.548329,80.03519 76.475854,80.00758 76.4,80 h -0.09 v 0.71 z m 0.35,-1 h 0.14 c 0.126479,0.0098 0.253521,0.0098 0.38,0 0.04528,-0.01218 0.08446,-0.04067 0.11,-0.08 0.01196,-0.04251 0.01196,-0.08749 0,-0.13 0.01375,-0.04224 0.01375,-0.08776 0,-0.13 -0.02178,-0.04271 -0.06266,-0.07245 -0.11,-0.08 -0.126078,-0.01727 -0.253922,-0.01727 -0.38,0 h -0.14 z" />
  </g>
</svg>
