<?xml version="1.0" encoding="UTF-8" standalone="no"?>
<svg
   xmlns:dc="http://purl.org/dc/elements/1.1/"
   xmlns:cc="http://creativecommons.org/ns#"
   xmlns:rdf="http://www.w3.org/1999/02/22-rdf-syntax-ns#"
   xmlns:svg="http://www.w3.org/2000/svg"
   xmlns="http://www.w3.org/2000/svg"
   xmlns:sodipodi="http://sodipodi.sourceforge.net/DTD/sodipodi-0.dtd"
   xmlns:inkscape="http://www.inkscape.org/namespaces/inkscape"
   width="587"
   height="115"
   viewBox="0 0 586.99995 115.00002"
   id="svg2"
   version="1.1"
   inkscape:version="1.0 (4035a4fb49, 2020-05-01)"
   sodipodi:docname="deloitte.svg"
   inkscape:export-filename="C:\Users\Daijin\Desktop\Deloitte.png"
   inkscape:export-xdpi="90"
   inkscape:export-ydpi="90">
  <defs
     id="defs4">
    <clipPath
       id="clipPath3350"
       clipPathUnits="userSpaceOnUse">
      <path
         inkscape:connector-curvature="0"
         id="path3352"
         d="m 42.52,723.968 h 130.394 v 24.378 H 42.52 Z" />
    </clipPath>
    <clipPath
       id="clipPath3708"
       clipPathUnits="userSpaceOnUse">
      <path
         inkscape:connector-curvature="0"
         id="path3710"
         d="m 335.433,531.507 h 135 v 51.596 h -135 z" />
    </clipPath>
    <clipPath
       id="clipPath3862"
       clipPathUnits="userSpaceOnUse">
      <path
         inkscape:connector-curvature="0"
         id="path3864"
         d="m 335.433,476.232 h 135 v 51.565 h -135 z" />
    </clipPath>
    <clipPath
       id="clipPath3882"
       clipPathUnits="userSpaceOnUse">
      <path
         inkscape:connector-curvature="0"
         id="path3884"
         d="m 335.433,420.927 h 135 v 51.564 h -135 z" />
    </clipPath>
    <clipPath
       id="clipPath3936"
       clipPathUnits="userSpaceOnUse">
      <path
         inkscape:connector-curvature="0"
         id="path3938"
         d="m 335.433,365.621 h 135 v 51.564 h -135 z" />
    </clipPath>
    <clipPath
       id="clipPath3984"
       clipPathUnits="userSpaceOnUse">
      <path
         inkscape:connector-curvature="0"
         id="path3986"
         d="m 335.433,310.315 h 135 v 51.564 h -135 z" />
    </clipPath>
    <clipPath
       id="clipPath4038"
       clipPathUnits="userSpaceOnUse">
      <path
         inkscape:connector-curvature="0"
         id="path4040"
         d="m 335.433,255.01 h 135 v 51.564 h -135 z" />
    </clipPath>
    <clipPath
       id="clipPath3350-9"
       clipPathUnits="userSpaceOnUse">
      <path
         inkscape:connector-curvature="0"
         id="path3352-1"
         d="m 42.52,723.968 h 130.394 v 24.378 H 42.52 Z" />
    </clipPath>
  </defs>
  <sodipodi:namedview
     id="base"
     pagecolor="#ffffff"
     bordercolor="#666666"
     borderopacity="1.0"
     inkscape:pageopacity="0"
     inkscape:pageshadow="2"
     inkscape:zoom="0.6636812"
     inkscape:cx="200.40294"
     inkscape:cy="100"
     inkscape:document-units="px"
     inkscape:current-layer="g3359"
     showgrid="false"
     fit-margin-top="10"
     fit-margin-left="10"
     fit-margin-right="10"
     fit-margin-bottom="10"
     units="px"
     inkscape:window-width="1366"
     inkscape:window-height="705"
     inkscape:window-x="-8"
     inkscape:window-y="304"
     inkscape:window-maximized="1"
     inkscape:document-rotation="0" />
  <metadata
     id="metadata7">
    <rdf:RDF>
      <cc:Work
         rdf:about="">
        <dc:format>image/svg+xml</dc:format>
        <dc:type
           rdf:resource="http://purl.org/dc/dcmitype/StillImage" />
        <dc:title></dc:title>
      </cc:Work>
    </rdf:RDF>
  </metadata>
  <g
     inkscape:label="Layer 1"
     inkscape:groupmode="layer"
     id="layer1"
     transform="translate(-2521.9698,-654.34261)">
    <g
       id="g3359"
       transform="matrix(3.0676446,0,0,3.0676446,-6165.655,-2195.369)">
      <path
         d="m 3011.3667,960.52838 c 0,-2.72617 2.2133,-4.93797 4.938,-4.93797 2.7262,0 4.9366,2.2118 4.9366,4.93797 0,2.72618 -2.2104,4.93655 -4.9366,4.93655 -2.7247,0 -4.938,-2.21037 -4.938,-4.93655"
         style="fill:#808080;fill-opacity:1;fill-rule:nonzero;stroke:none;stroke-width:1.14305"
         id="path3356"
         inkscape:connector-curvature="0" />
      <path
         d="m 2853.8856,947.45117 c 0,-3.12766 -0.6042,-5.44805 -1.8131,-6.95974 -1.2102,-1.51025 -3.0434,-2.26466 -5.508,-2.26466 h -2.6219 v 19.12608 h 2.0061 c 2.7376,0 4.7437,-0.81157 6.021,-2.44042 1.2759,-1.62598 1.9159,-4.11354 1.9159,-7.46126 m 9.3502,-0.32577 c 0,5.69811 -1.5317,10.08885 -4.595,13.1708 -3.0634,3.08336 -7.3698,4.62506 -12.9208,4.62506 h -10.786 v -34.14432 h 11.5391 c 5.3522,0 9.4844,1.40167 12.3963,4.20357 2.9105,2.80333 4.3664,6.84972 4.3664,12.14489"
         style="fill:#808080;fill-opacity:1;fill-rule:nonzero;stroke:none;stroke-width:1.14305"
         id="path3360"
         inkscape:connector-curvature="0" />
      <path
         inkscape:connector-curvature="0"
         id="path3362"
         style="fill:#808080;fill-opacity:1;fill-rule:nonzero;stroke:none;stroke-width:1.14305"
         d="m 2893.1134,964.92083 h 8.5829 v -34.28719 h -8.5829 z" />
      <path
         d="m 2913.7536,952.13154 c 0,2.18608 0.2857,3.85351 0.8559,4.99942 0.5715,1.14733 1.5288,1.72028 2.8747,1.72028 1.3317,0 2.2733,-0.57295 2.8219,-1.72028 0.5487,-1.14591 0.8216,-2.81334 0.8216,-4.99942 0,-2.17465 -0.2773,-3.81492 -0.833,-4.92225 -0.5572,-1.11019 -1.5074,-1.666 -2.8547,-1.666 -1.3174,0 -2.259,0.55295 -2.8305,1.65313 -0.5702,1.10163 -0.8559,2.74618 -0.8559,4.93512 m 16.1097,0 c 0,4.16499 -1.0915,7.4141 -3.2804,9.74307 -2.1875,2.33039 -5.2495,3.4963 -9.1859,3.4963 -3.7749,0 -6.7797,-1.19163 -9.01,-3.57488 -2.2332,-2.38327 -3.3492,-5.60381 -3.3492,-9.66449 0,-4.15213 1.0932,-7.37839 3.2821,-9.67877 2.1888,-2.30038 5.2579,-3.45058 9.21,-3.45058 2.4419,0 4.6023,0.53294 6.474,1.59741 1.8731,1.06446 3.3192,2.58901 4.335,4.57506 1.0174,1.98319 1.5244,4.30358 1.5244,6.95688"
         style="fill:#808080;fill-opacity:1;fill-rule:nonzero;stroke:none;stroke-width:1.14305"
         id="path3366"
         inkscape:connector-curvature="0" />
      <path
         d="m 2933.272,964.92098 h 8.5842 V 951.79877 939.4524 h -8.5842 z"
         style="fill:#808080;fill-opacity:1;fill-rule:nonzero;stroke:none;stroke-width:1.14305"
         id="path3370"
         inkscape:connector-curvature="0" />
      <path
         inkscape:connector-curvature="0"
         id="path3372"
         style="fill:#808080;fill-opacity:1;fill-rule:nonzero;stroke:none;stroke-width:1.14305"
         d="m 2933.2716,936.37174 h 8.5844 v -5.73953 h -8.5844 z" />
      <path
         d="m 2959.2475,958.42488 c 1.1589,0 2.5391,-0.29432 4.1493,-0.87871 v 6.40821 c -1.1574,0.50866 -2.2575,0.87301 -3.3034,1.08876 -1.0459,0.21861 -2.2733,0.3272 -3.6778,0.3272 -2.8819,0 -4.9593,-0.72441 -6.2353,-2.17036 -1.2702,-1.44596 -1.9074,-3.66634 -1.9074,-6.66256 v -10.4989 h -3.0062 v -6.58397 h 3.0062 v -6.50394 l 8.65,-1.50455 v 8.00849 h 5.4766 v 6.58397 h -5.4766 v 9.91309 c 0,1.64885 0.7758,2.47327 2.3246,2.47327"
         style="fill:#808080;fill-opacity:1;fill-rule:nonzero;stroke:none;stroke-width:1.14305"
         id="path3376"
         inkscape:connector-curvature="0" />
      <path
         d="m 2979.1148,958.42488 c 1.1588,0 2.539,-0.29432 4.1492,-0.87871 v 6.40821 c -1.1558,0.50866 -2.2575,0.87301 -3.3033,1.08876 -1.0473,0.21861 -2.2704,0.3272 -3.6778,0.3272 -2.8819,0 -4.9594,-0.72441 -6.2325,-2.17036 -1.2731,-1.44596 -1.9103,-3.66634 -1.9103,-6.66256 v -10.4989 h -3.0077 v -6.58397 h 3.0077 v -6.60254 l 8.6485,-1.40595 v 8.00849 h 5.4796 v 6.58397 h -5.4796 v 9.91309 c 0,1.64885 0.7759,2.47327 2.3262,2.47327"
         style="fill:#808080;fill-opacity:1;fill-rule:nonzero;stroke:none;stroke-width:1.14305"
         id="path3380"
         inkscape:connector-curvature="0" />
      <path
         d="m 2994.0954,949.02887 c 0.1171,-1.39452 0.5158,-2.41612 1.1958,-3.06909 0.6831,-0.65154 1.5261,-0.97731 2.5348,-0.97731 1.1002,0 1.9747,0.36578 2.6234,1.10305 0.6528,0.73297 0.9929,1.71457 1.0201,2.94335 z m 12.1048,-7.02404 c -2.0403,-2.00033 -4.9351,-3.00193 -8.6799,-3.00193 -3.9364,0 -6.9655,1.15019 -9.0888,3.45058 -2.1218,2.30038 -3.1834,5.60094 -3.1834,9.90167 0,4.16498 1.1474,7.37696 3.4364,9.63161 2.2904,2.25467 5.5065,3.38343 9.6487,3.38343 1.9889,0 3.7006,-0.13574 5.1351,-0.40579 1.426,-0.26718 2.8063,-0.75011 4.1451,-1.44737 l -1.3188,-5.73954 c -0.973,0.39721 -1.8989,0.70297 -2.7733,0.90443 -1.2631,0.29291 -2.649,0.44008 -4.158,0.44008 -1.6544,0 -2.9604,-0.40436 -3.9176,-1.21306 -0.9573,-0.81013 -1.4675,-1.92747 -1.5261,-3.35056 h 15.3426 v -3.91067 c 0,-3.76206 -1.0203,-6.64397 -3.062,-8.64288"
         style="fill:#808080;fill-opacity:1;fill-rule:nonzero;stroke:none;stroke-width:1.14305"
         id="path3384"
         inkscape:connector-curvature="0" />
      <path
         d="m 2874.6275,949.02887 c 0.1172,-1.39452 0.516,-2.41612 1.196,-3.06909 0.6816,-0.65154 1.5259,-0.97731 2.5362,-0.97731 1.0973,0 1.9717,0.36578 2.6218,1.10305 0.653,0.73297 0.9916,1.71457 1.0216,2.94335 z m 12.1063,-7.02404 c -2.0417,-2.00033 -4.9351,-3.00193 -8.6812,-3.00193 -3.938,0 -6.9656,1.15019 -9.0875,3.45058 -2.1217,2.30038 -3.1847,5.60094 -3.1847,9.90167 0,4.16498 1.1459,7.37696 3.4377,9.63161 2.2889,2.25467 5.5052,3.38343 9.6474,3.38343 1.9888,0 3.7006,-0.13574 5.1351,-0.40579 1.426,-0.26718 2.8062,-0.75011 4.1464,-1.44737 l -1.3203,-5.73954 c -0.973,0.39721 -1.8989,0.70297 -2.7718,0.90443 -1.2659,0.29291 -2.6504,0.44008 -4.1593,0.44008 -1.6531,0 -2.9604,-0.40436 -3.9177,-1.21306 -0.9589,-0.81013 -1.4674,-1.92747 -1.526,-3.35056 h 15.3426 v -3.91067 c 0,-3.76206 -1.0203,-6.64397 -3.0607,-8.64288"
         style="fill:#808080;fill-opacity:1;fill-rule:nonzero;stroke:none;stroke-width:1.14305"
         id="path3388"
         inkscape:connector-curvature="0" />
    </g>
  </g>
</svg>
