<?xml version="1.0" encoding="UTF-8" standalone="no"?>
<svg
   xmlns:dc="http://purl.org/dc/elements/1.1/"
   xmlns:cc="http://creativecommons.org/ns#"
   xmlns:rdf="http://www.w3.org/1999/02/22-rdf-syntax-ns#"
   xmlns:svg="http://www.w3.org/2000/svg"
   xmlns="http://www.w3.org/2000/svg"
   xmlns:sodipodi="http://sodipodi.sourceforge.net/DTD/sodipodi-0.dtd"
   xmlns:inkscape="http://www.inkscape.org/namespaces/inkscape"
   inkscape:version="1.0 (4035a4fb49, 2020-05-01)"
   height="100"
   width="131"
   sodipodi:docname="istqb.svg"
   id="svg50"
   version="1.1"
   viewBox="0 0 131.00002 99.999996">
  <metadata
     id="metadata54">
    <rdf:RDF>
      <cc:Work
         rdf:about="">
        <dc:format>image/svg+xml</dc:format>
        <dc:type
           rdf:resource="http://purl.org/dc/dcmitype/StillImage" />
        <dc:title>istqb-certified-logo</dc:title>
      </cc:Work>
    </rdf:RDF>
  </metadata>
  <sodipodi:namedview
     inkscape:current-layer="svg50"
     inkscape:window-maximized="1"
     inkscape:window-y="304"
     inkscape:window-x="-8"
     inkscape:cy="77.973857"
     inkscape:cx="118.03013"
     inkscape:zoom="2.468679"
     showgrid="false"
     id="namedview52"
     inkscape:window-height="705"
     inkscape:window-width="1366"
     inkscape:pageshadow="2"
     inkscape:pageopacity="0"
     guidetolerance="10"
     gridtolerance="10"
     objecttolerance="10"
     borderopacity="1"
     bordercolor="#666666"
     pagecolor="#ffffff" />
  <defs
     id="defs4">
    <style
       id="style2">.cls-1{fill:#d02c26;}.cls-2{fill:#0c60a5;}</style>
  </defs>
  <title
     id="title6">istqb-certified-logo</title>
  <g
     transform="matrix(0.62149556,0,0,0.62149556,1.9848598,1.9967413)"
     id="g921">
    <g
       data-name="Layer 1"
       id="Layer_1-2"
       style="fill:#808080">
      <path
         id="path8"
         d="m 62.1,55.53 c 1,-1.43 2.07,-2.7 3.11,-3.95 a 108.79,108.79 0 0 1 23,-20.48 154.65,154.65 0 0 1 33.63,-16.77 220.42,220.42 0 0 1 29.66,-8.41 q 8.58,-1.83 17.25,-3.08 c 4.61,-0.67 9.23,-1.21 13.86,-1.65 q 10.13,-1 20.3,-1.16 a 4.53,4.53 0 0 1 1.62,0.08 c 0,0.29 -0.24,0.24 -0.4,0.26 -3.5,0.56 -7,1.16 -10.48,1.85 Q 182,4.56 170.47,7.87 a 255.53,255.53 0 0 0 -41.42,15.72 181.3,181.3 0 0 0 -34.41,21.5 139.33,139.33 0 0 0 -11.19,10 1.38,1.38 0 0 1 -1.05,0.48 q -9.91,0 -19.83,0 z"
         class="cls-1"
         style="fill:#808080" />
      <path
         id="path10"
         d="m 143,81.34 c 0.49,0.15 1,0.28 1.42,0.44 a 7.25,7.25 0 0 1 5.09,6.63 13.69,13.69 0 0 1 -0.39,4.84 7.29,7.29 0 0 1 -4.64,5.17 15.56,15.56 0 0 1 -5.56,1 c -5.5,0 -11,0 -16.5,0 -0.72,0 -0.72,0 -0.73,-0.71 0,-1.28 0,-2.56 0,-3.84 0,-0.46 0.14,-0.62 0.59,-0.6 0.84,0 1.69,0 2.53,0 1,0 0.92,0 0.92,-0.88 q 0,-3.06 0,-6.11 0,-8.07 0,-16.15 c 0,-1.2 0.14,-1 -1.08,-1 -0.81,0 -1.63,0 -2.44,0 -0.38,0 -0.51,-0.12 -0.51,-0.5 0,-1.25 0,-2.5 0,-3.75 0,-0.6 0,-0.61 0.65,-0.61 h 5.76 c 3.35,0 6.69,0 10,0 a 20.36,20.36 0 0 1 5.27,0.62 6.45,6.45 0 0 1 5.05,5.86 12.48,12.48 0 0 1 -0.15,4.42 6.28,6.28 0 0 1 -4.28,4.74 c -0.33,0.09 -0.71,0.09 -1,0.43 z m -10.51,7.76 c 0,1.51 0,3 0,4.54 0,0.34 0,0.64 0.48,0.63 a 54.63,54.63 0 0 0 5.58,-0.12 4.31,4.31 0 0 0 4.07,-3.48 7.58,7.58 0 0 0 0,-3.29 3.55,3.55 0 0 0 -2.62,-2.83 7.35,7.35 0 0 0 -2,-0.35 h -4.88 c -0.59,0 -0.6,0 -0.61,0.65 -0.03,1.4 -0.02,2.82 -0.02,4.25 z m 0,-14.39 c 0,1.37 0,2.73 0,4.1 0,0.32 0,0.57 0.45,0.56 1.69,0 3.38,0.09 5.06,-0.06 a 3.87,3.87 0 0 0 3.6,-3.05 7.13,7.13 0 0 0 0.22,-1.81 4,4 0 0 0 -3.66,-4.33 4.74,4.74 0 0 0 -0.78,-0.07 h -4.28 c -0.59,0 -0.6,0 -0.6,0.66 -0.02,1.29 -0.01,2.66 -0.01,4 z"
         class="cls-2"
         style="fill:#808080" />
      <path
         id="path12"
         d="m 109.46,94.56 a 40.38,40.38 0 0 1 7.07,-0.31 c 0.64,0 0.65,0 0.65,0.61 q 0,2 0,3.93 c 0,0.59 0,0.6 -0.66,0.6 -3.11,0 -6.23,0 -9.34,0 a 14.79,14.79 0 0 0 -2.77,0.26 22,22 0 0 1 -9.61,-0.14 14.22,14.22 0 0 1 -10.27,-9.67 23.4,23.4 0 0 1 -1.12,-8.25 20.76,20.76 0 0 1 1.27,-7.26 c 2.19,-5.61 6.24,-8.9 12.24,-9.71 a 18.53,18.53 0 0 1 8.37,0.64 14.51,14.51 0 0 1 9.58,9.55 20,20 0 0 1 0.22,12.28 12.62,12.62 0 0 1 -5.23,7.18 z m -0.35,-12.3 a 19.11,19.11 0 0 0 -0.15,-2.7 13.62,13.62 0 0 0 -2.09,-6.4 7.88,7.88 0 0 0 -5.21,-3.5 10.66,10.66 0 0 0 -3.39,-0.1 7.77,7.77 0 0 0 -5.43,3.15 10.52,10.52 0 0 0 -1.51,2.83 20.67,20.67 0 0 0 -1,8.17 16.58,16.58 0 0 0 1.22,5.77 c 1.92,4.4 5.4,5.92 9.8,5.31 a 7.72,7.72 0 0 0 5.53,-3.6 11.44,11.44 0 0 0 1.25,-2.58 20.56,20.56 0 0 0 0.98,-6.35 z"
         class="cls-2"
         style="fill:#808080" />
      <path
         id="path14"
         d="m 25.83,96.79 c 0,0.81 0,1.5 0,2.19 0,0.45 -0.13,0.61 -0.59,0.6 q -2.23,0 -4.45,0 c -0.47,0 -0.59,-0.16 -0.59,-0.6 0,-2.47 0,-4.95 0,-7.42 0,-1.08 0,-2.15 0,-3.23 0,-0.44 0.12,-0.61 0.59,-0.61 q 2.31,0 4.63,0 c 0.49,0 0.58,0.19 0.55,0.63 a 8.44,8.44 0 0 0 0.16,2.34 5,5 0 0 0 4.41,4.21 7.37,7.37 0 0 0 3.71,-0.2 4.23,4.23 0 0 0 3,-3.35 4,4 0 0 0 -1.53,-4.18 11.83,11.83 0 0 0 -3.77,-2 c -1.54,-0.52 -3.09,-1 -4.63,-1.53 -0.8,-0.27 -1.56,-0.64 -2.33,-1 A 7.5,7.5 0 0 1 20.62,77 a 12.33,12.33 0 0 1 0.15,-5.54 9.22,9.22 0 0 1 8.51,-7 13.06,13.06 0 0 1 3.56,0.23 8.21,8.21 0 0 1 4.82,3 c 0.06,-0.7 0,-1.23 0,-1.76 0,-0.68 0,-0.7 0.65,-0.7 1.46,0 2.91,0 4.37,0 0.44,0 0.61,0.12 0.61,0.59 q 0,4.71 0,9.43 c 0,0.44 -0.12,0.61 -0.59,0.6 q -2.27,0 -4.54,0 c -0.48,0 -0.61,-0.21 -0.64,-0.61 A 7.15,7.15 0 0 0 37,72.85 a 5.47,5.47 0 0 0 -7,-3 3.87,3.87 0 0 0 -2.48,4.93 3.33,3.33 0 0 0 1.59,2 14.34,14.34 0 0 0 2.76,1.29 c 1.75,0.64 3.5,1.26 5.24,1.91 a 24.72,24.72 0 0 1 2.46,1.13 8.19,8.19 0 0 1 4.6,6.67 13.17,13.17 0 0 1 -0.2,4.77 9.16,9.16 0 0 1 -7.47,7.29 13.63,13.63 0 0 1 -5.64,0 7.63,7.63 0 0 1 -4.37,-2.53 l -0.4,-0.46 z"
         class="cls-2"
         style="fill:#808080" />
      <path
         id="path16"
         d="m 63.7,65.2 h 12.84 a 4.15,4.15 0 0 0 0.52,0 c 0.48,-0.06 0.58,0.19 0.58,0.61 q 0,5.24 0,10.48 c 0,0.47 -0.17,0.59 -0.62,0.58 -1.46,0 -2.91,0 -4.37,0 -0.67,0 -0.68,0 -0.68,-0.67 0,-1.8 0,-3.61 0,-5.41 0,-0.7 0,-0.71 -0.72,-0.71 h -3.57 c -0.65,0 -0.66,0 -0.66,0.68 0,1.43 0,2.85 0,4.28 q 0,9.13 0,18.25 c 0,1.07 -0.1,1 1,1 1.1,0 1.92,0 2.88,0 0.43,0 0.55,0.16 0.54,0.56 0,1.34 0,2.68 0,4 0,0.48 -0.19,0.58 -0.62,0.58 q -7.12,0 -14.24,0 c -0.42,0 -0.64,-0.07 -0.63,-0.56 q 0,-2 0,-4 c 0,-0.49 0.21,-0.58 0.63,-0.58 1,0 2.1,0 3.14,0 0.65,0 0.67,0 0.67,-0.7 q 0,-11.4 0,-22.79 c 0,-0.68 0,-0.69 -0.66,-0.69 -1.28,0 -2.56,0 -3.84,0 -0.48,0 -0.59,0.17 -0.59,0.61 0,1.78 0,3.55 0,5.33 0,0.92 0,0.88 -0.83,0.88 -1.37,0 -2.74,0 -4.1,0 -0.43,0 -0.62,-0.11 -0.61,-0.58 0,-3.49 0,-7 0,-10.48 0,-0.6 0,-0.61 0.74,-0.61 h 13.2 z"
         class="cls-2"
         style="fill:#808080" />
      <path
         id="path18"
         d="M 4,82.14 Q 4,76.68 4,71.22 c 0,-0.2 0,-0.41 0,-0.61 0,-0.41 -0.12,-0.57 -0.55,-0.56 -0.93,0 -1.86,0 -2.79,0 -0.68,0 -0.7,0 -0.7,-0.65 q 0,-1.79 0,-3.58 c 0,-0.61 0,-0.63 0.63,-0.63 h 13.5 c 0.71,0 0.72,0 0.72,0.72 q 0,1.7 0,3.41 c 0,0.72 0,0.73 -0.7,0.73 -0.93,0 -1.86,0 -2.79,0 -0.43,0 -0.58,0.15 -0.54,0.56 0,0.2 0,0.41 0,0.61 q 0,10.92 0,21.83 c 0,0.17 0,0.35 0,0.52 0,0.65 0,0.66 0.68,0.67 0.93,0 1.86,0 2.79,0 0.4,0 0.57,0.11 0.56,0.55 0,1.37 0,2.74 0,4.1 0,0.38 -0.14,0.51 -0.51,0.5 -1,0 -2,0 -3.06,0 H 0.42 C 0.13,99.41 0,99.28 0,99 0,97.57 0,96.15 0,94.72 0,94.37 0.16,94.27 0.47,94.27 h 2.71 c 0.85,0 0.86,0 0.86,-0.85 Q 4,87.77 4,82.14 Z"
         class="cls-2"
         style="fill:#808080" />
      <path
         id="path20"
         d="M 47.28,110.24 C 42.07,124.48 38.86,139 39,154.1 A 10.67,10.67 0 0 1 38.45,151.46 126.46,126.46 0 0 1 37.07,128 137.61,137.61 0 0 1 38.62,111.32 v -0.17 c 0.15,-0.88 0.15,-0.88 1.08,-0.88 z"
         class="cls-1"
         style="fill:#808080" />
      <path
         id="path22"
         d="m 121.46,115.06 c 0,-0.92 0,-1.85 0,-2.78 0,-0.46 0.15,-0.61 0.61,-0.6 1.66,0 1.36,-0.17 1.37,1.31 0,3.31 0,6.63 0,9.94 0,0.2 0,0.41 0,0.61 0,0.2 -0.13,0.36 -0.37,0.36 a 7.25,7.25 0 0 0 -1,0 c -0.43,0.06 -0.56,-0.17 -0.62,-0.56 a 2.36,2.36 0 0 0 -0.24,0.16 1.79,1.79 0 0 1 -3.18,-0.82 5.39,5.39 0 0 1 -0.24,-1.63 c 0,-1.19 0,-2.38 0,-3.58 a 5.28,5.28 0 0 1 0.22,-1.55 1.86,1.86 0 0 1 3.09,-1 c 0.04,0.08 0.09,0.23 0.36,0.14 z m -1.73,4.2 v 0 c 0,0.58 0,1.16 0,1.75 a 2.1,2.1 0 0 0 0.25,1.09 0.67,0.67 0 0 0 1.24,0 1.64,1.64 0 0 0 0.19,-0.84 q 0,-1.88 0,-3.75 a 1.74,1.74 0 0 0 -0.23,-0.92 0.76,0.76 0 0 0 -0.8,-0.4 0.66,0.66 0 0 0 -0.57,0.58 4.92,4.92 0 0 0 -0.09,0.87 c 0.01,0.52 0.02,1.07 0.02,1.62 z"
         class="cls-2"
         style="fill:#808080" />
      <path
         id="path24"
         d="m 61.53,115.5 c -0.11,-0.52 -0.17,-1 -0.3,-1.43 a 1,1 0 0 0 -0.92,-0.8 1.11,1.11 0 0 0 -1.1,0.71 2.6,2.6 0 0 0 -0.23,1.1 q 0,2.62 0,5.23 a 2.85,2.85 0 0 0 0.3,1.35 1.06,1.06 0 0 0 1.13,0.64 1,1 0 0 0 0.88,-0.83 4.61,4.61 0 0 0 0.17,-1.38 c 0,-0.4 0.1,-0.58 0.54,-0.57 1.78,0.08 1.64,-0.4 1.48,1.61 a 5.32,5.32 0 0 1 -0.12,0.77 2.77,2.77 0 0 1 -2.79,2.29 5.7,5.7 0 0 1 -1.3,-0.11 2.7,2.7 0 0 1 -2.16,-2 7.59,7.59 0 0 1 -0.31,-2.06 35,35 0 0 1 0.1,-5.05 c 0,-0.14 0,-0.29 0,-0.43 a 3.28,3.28 0 0 1 4.37,-3 2.39,2.39 0 0 1 1.76,1.42 6.51,6.51 0 0 1 0.46,2 c 0,0.35 -0.06,0.55 -0.46,0.53 -0.4,-0.02 -1.03,0.01 -1.5,0.01 z"
         class="cls-2"
         style="fill:#808080" />
      <path
         id="path26"
         d="m 67.08,119.07 a 13.65,13.65 0 0 1 0.12,-2.43 2.42,2.42 0 0 1 2.13,-2.1 4,4 0 0 1 1.9,0.1 2,2 0 0 1 1.42,1.36 11.14,11.14 0 0 1 0.26,3.37 c 0,0.34 -0.27,0.32 -0.5,0.32 h -2.88 c -0.27,0 -0.44,0.09 -0.45,0.39 a 7.65,7.65 0 0 0 0.07,1.56 c 0.1,0.51 0.36,0.77 0.78,0.79 0.42,0.02 0.76,-0.21 0.93,-0.74 0.1,-0.32 -0.13,-0.84 0.24,-0.94 a 5.71,5.71 0 0 1 1.56,0 c 0.19,0 0.2,0.17 0.22,0.32 a 2.57,2.57 0 0 1 -2.48,3 c -1.67,0.08 -2.84,-0.37 -3.2,-2.53 a 16.89,16.89 0 0 1 -0.12,-2.47 z m 2.93,-1 c 1,0 1,0 0.91,-1 -0.05,-0.65 -0.31,-0.93 -0.88,-0.95 -0.57,-0.02 -0.84,0.23 -0.94,0.89 -0.16,1.09 -0.1,1.1 0.9,1.1 z"
         class="cls-2"
         style="fill:#808080" />
      <path
         id="path28"
         d="m 108.29,119.11 c 0,-0.64 0,-1.28 0,-1.92 a 2.59,2.59 0 0 1 2.61,-2.71 3.91,3.91 0 0 1 1.55,0.18 2.08,2.08 0 0 1 1.41,1.54 12.87,12.87 0 0 1 0.19,3.21 c 0,0.36 -0.26,0.33 -0.49,0.33 h -3 a 0.33,0.33 0 0 0 -0.36,0.38 7.15,7.15 0 0 0 0.07,1.57 c 0.15,0.58 0.4,0.8 0.88,0.79 0.48,-0.01 0.66,-0.19 0.82,-0.75 a 0.43,0.43 0 0 1 0,-0.08 c 0.14,-0.28 -0.09,-0.77 0.25,-0.85 a 6.18,6.18 0 0 1 1.56,0 c 0.17,0 0.19,0.18 0.21,0.33 a 2.59,2.59 0 0 1 -2.34,3 c -2,0.22 -3.21,-0.76 -3.39,-2.82 -0.06,-0.72 0,-1.45 0,-2.18 z m 2.87,-1 h 0.35 c 0.6,0 0.6,0 0.6,-0.64 0,-0.12 0,-0.23 0,-0.35 -0.06,-0.68 -0.36,-1 -1,-1 -0.64,0 -0.83,0.31 -0.9,1 -0.08,0.96 -0.04,0.99 0.95,0.99 z"
         class="cls-2"
         style="fill:#808080" />
      <path
         id="path30"
         d="m 96.17,120.16 q 0,-1.62 0,-3.23 c 0,-0.3 0,-0.61 -0.41,-0.6 a 0.36,0.36 0 0 1 -0.23,-0.09 c -0.13,-0.13 -0.15,-1.32 0,-1.34 1,-0.16 0.47,-1 0.67,-1.49 a 4.48,4.48 0 0 0 0.08,-0.52 1.31,1.31 0 0 1 1.13,-1.07 h 0.35 c 1.51,-0.12 1.2,-0.07 1.24,1.21 0,0.29 -0.1,0.4 -0.41,0.4 -0.56,0 -0.41,0.45 -0.43,0.77 -0.02,0.32 -0.05,0.67 0.46,0.63 0.32,0 0.39,0.18 0.38,0.45 -0.01,0.27 0,0.41 0,0.61 0,0.2 -0.06,0.53 -0.42,0.5 -0.36,-0.03 -0.41,0.28 -0.41,0.57 q 0,3 0,6 c 0,0.2 0,0.41 0,0.61 0,0.2 -0.12,0.37 -0.36,0.36 h -0.09 c -1.52,0.12 -1.52,0.12 -1.52,-1.39 q -0.03,-1.2 -0.03,-2.38 z"
         class="cls-2"
         style="fill:#808080" />
      <path
         id="path32"
         d="m 83.73,119.63 q 0,-1.39 0,-2.79 c 0,-0.27 0,-0.55 -0.37,-0.55 -0.37,0 -0.44,-0.22 -0.4,-0.52 0.04,-0.3 -0.26,-1 0.6,-1 0.18,0 0.18,-0.27 0.18,-0.44 0,-0.52 0,-1 0,-1.57 0,-0.35 0.09,-0.51 0.48,-0.53 1.51,-0.08 1.51,-0.1 1.51,1.42 0,0.23 0,0.47 0,0.7 0,0.23 0.08,0.5 0.44,0.47 0.36,-0.03 0.35,0.13 0.35,0.37 0,0.24 0,0.46 0,0.7 0,0.24 -0.06,0.46 -0.38,0.44 -0.32,-0.02 -0.41,0.21 -0.41,0.5 0,1.6 0,3.2 0,4.79 0,0.23 0,0.55 0.24,0.59 0.73,0.09 0.54,0.61 0.54,1 0,0.76 0,0.77 -0.77,0.8 a 2.74,2.74 0 0 1 -0.95,-0.09 1.3,1.3 0 0 1 -1,-1.41 c 0,-1 0,-1.92 0,-2.88 z"
         class="cls-2"
         style="fill:#808080" />
      <path
         id="path34"
         d="m 78.57,123.82 a 0.57,0.57 0 0 1 -0.16,0.06 c -1.74,0.13 -1.74,0.13 -1.74,-1.61 q 0,-3.4 0,-6.8 c 0,-0.7 0,-0.7 0.72,-0.71 1.14,0 1.14,0 1.24,1.21 0.5,-0.66 0.87,-1.41 1.82,-1.34 a 15.68,15.68 0 0 1 0,2.1 0.28,0.28 0 0 1 -0.31,0.32 2.34,2.34 0 0 0 -0.52,0.05 1.14,1.14 0 0 0 -1,1.06 c 0,0.35 -0.05,0.69 -0.06,1 0,1.48 0,3 0,4.45 a 0.52,0.52 0 0 1 0.01,0.21 z"
         class="cls-2"
         style="fill:#808080" />
      <path
         id="path36"
         d="m 92,119.41 c 0,1.28 0,2.55 0,3.83 0,0.64 0,0.66 -0.6,0.66 -1.65,0 -1.34,0.23 -1.35,-1.29 0,-2.38 0,-4.76 0,-7.13 0,-0.69 0,-0.71 0.72,-0.7 1.46,0 1.21,-0.19 1.23,1.25 0,1.12 0,2.25 0,3.38 z"
         class="cls-2"
         style="fill:#808080" />
      <path
         id="path38"
         d="m 104.33,119.31 c 0,1.33 0,2.67 0,4 0,0.45 -0.12,0.61 -0.59,0.6 -1.69,-0.05 -1.36,0.2 -1.37,-1.37 0,-2.35 0,-4.7 0,-7 0,-0.71 0,-0.72 0.72,-0.72 1.46,0 1.22,-0.22 1.23,1.23 0.02,1.05 0.01,2.16 0.01,3.26 z"
         class="cls-2"
         style="fill:#808080" />
      <path
         id="path40"
         d="m 150.39,68.37 a 3,3 0 0 1 2.25,-3 3.091642,3.091642 0 0 1 0.81,6.13 2.94,2.94 0 0 1 -3.06,-3.13 z m 4.2,1.68 c 0.15,0.19 0.26,0 0.33,-0.07 a 2.65,2.65 0 0 0 -0.19,-3.49 2.11,2.11 0 0 0 -2.57,-0.3 2.37,2.37 0 0 0 -1.16,2.29 2.29,2.29 0 0 0 1.4,2.14 2,2 0 0 0 2.2,-0.3 c 0.1,-0.08 0.14,-0.17 0,-0.27 z"
         class="cls-2"
         style="fill:#808080" />
      <path
         id="path42"
         d="m 92,112.68 c 0,0.17 0,0.35 0,0.52 0,0.17 -0.09,0.46 -0.43,0.49 -1.47,0.13 -1.59,0 -1.53,-1.48 0,-0.43 0.16,-0.58 0.56,-0.53 a 3.92,3.92 0 0 0 0.43,0 c 1.12,0.01 0.97,-0.04 0.97,1 z"
         class="cls-2"
         style="fill:#808080" />
      <path
         id="path44"
         d="m 102.37,112.7 c 0,-0.17 0,-0.35 0,-0.52 0,-0.39 0.17,-0.5 0.52,-0.49 1.73,0 1.4,-0.25 1.43,1.39 0,0.6 0,0.6 -0.64,0.61 h -0.35 c -1.08,0 -0.95,0.07 -0.96,-0.99 z"
         class="cls-2"
         style="fill:#808080" />
      <path
         id="path46"
         d="m 154.6,70 a 0.87,0.87 0 0 1 -1.11,-0.69 1.06,1.06 0 0 0 -0.22,-0.37 c -0.13,-0.16 -0.28,-0.34 -0.5,-0.27 -0.22,0.07 -0.14,0.33 -0.19,0.52 -0.05,0.19 0.2,0.83 -0.38,0.76 -0.58,-0.07 -0.23,-0.52 -0.24,-0.79 0,-0.67 0,-1.33 0,-2 0,-0.4 0.16,-0.51 0.52,-0.48 0.36,0.03 0.64,0 1,0 a 0.87,0.87 0 0 1 0.91,0.54 0.91,0.91 0 0 1 -0.26,1.1 l -0.24,0.2 0.76,1.48 z m -1.65,-1.91 c 0.31,0 0.69,0 0.74,-0.4 0.05,-0.4 -0.28,-0.44 -0.58,-0.46 -0.3,-0.02 -0.56,0 -0.55,0.44 0.01,0.44 0.07,0.5 0.39,0.47 z"
         class="cls-2"
         style="fill:#808080" />
    </g>
  </g>
</svg>
