<?xml version="1.0" encoding="UTF-8" standalone="no"?>
<svg
   xmlns:dc="http://purl.org/dc/elements/1.1/"
   xmlns:cc="http://creativecommons.org/ns#"
   xmlns:rdf="http://www.w3.org/1999/02/22-rdf-syntax-ns#"
   xmlns:svg="http://www.w3.org/2000/svg"
   xmlns="http://www.w3.org/2000/svg"
   xmlns:sodipodi="http://sodipodi.sourceforge.net/DTD/sodipodi-0.dtd"
   xmlns:inkscape="http://www.inkscape.org/namespaces/inkscape"
   inkscape:version="1.0 (4035a4fb49, 2020-05-01)"
   sodipodi:docname="kpmg.svg"
   id="svg5622"
   viewBox="-0.969375 -0.969375 21.866899 9.2898438"
   height="115"
   width="271"
   version="1.1">
  <metadata
     id="metadata909">
    <rdf:RDF>
      <cc:Work
         rdf:about="">
        <dc:format>image/svg+xml</dc:format>
        <dc:type
           rdf:resource="http://purl.org/dc/dcmitype/StillImage" />
        <dc:title></dc:title>
      </cc:Work>
    </rdf:RDF>
  </metadata>
  <sodipodi:namedview
     inkscape:current-layer="svg5622"
     inkscape:window-maximized="1"
     inkscape:window-y="304"
     inkscape:window-x="-8"
     inkscape:cy="99.482247"
     inkscape:cx="159.6056"
     inkscape:zoom="2.0488281"
     showgrid="false"
     id="namedview907"
     inkscape:window-height="705"
     inkscape:window-width="1366"
     inkscape:pageshadow="2"
     inkscape:pageopacity="0"
     guidetolerance="10"
     gridtolerance="10"
     objecttolerance="10"
     borderopacity="1"
     bordercolor="#666666"
     pagecolor="#ffffff" />
  <defs
     id="defs5624" />
  <path
     style="fill:#999999;fill-opacity:1;stroke:#ffffff;stroke-width:0.00205294;stroke-linecap:butt;stroke-linejoin:miter;stroke-miterlimit:10;stroke-dasharray:none;stroke-opacity:0"
     id="path5037"
     d="M 14.574085,-0.75278178 V 3.126349 l -0.04949,0.040876 -0.04949,0.040876 -0.04743,0.042921 -0.04537,0.042918 -0.04331,0.042918 -0.0433,0.044965 -0.04124,0.044962 -0.04124,0.044965 V -0.75278268 H 9.8765455 V 2.7789034 H 9.5177385 V -0.75278178 H 5.1810789 V 2.785034 H 4.8222671 V -0.75278178 H 0.4856046 V 3.279633 L -0.62176194,6.9359878 H 0.3515656 L 0.8402909,5.317301 H 0.9805157 L 1.78887,6.9359878 H 2.9642865 L 2.1806746,5.317301 H 3.9582335 L 3.4653843,6.9359878 H 4.527383 L 5.0140455,5.3213881 H 5.249129 v -0.0041 H 5.5831933 5.6099973 7.616452 L 7.1462863,6.9318954 H 8.2185948 L 8.6743255,5.3172932 H 9.156863 l 0.01237,1.6146022 h 0.899086 l 1.03313,-1.6146022 h 0.676378 l -0.350563,1.6146022 h 1.055813 l 0.344376,-1.6146022 h 0.61039 l -0.0041,0.09197 0.0022,0.094014 0.0041,0.089927 0.0083,0.089927 0.0062,0.042918 0.0062,0.042921 0.0083,0.042918 0.0083,0.042921 0.0103,0.042918 0.0103,0.040875 0.01236,0.040876 0.01236,0.040878 0.01445,0.040875 0.01445,0.038833 0.01648,0.038833 0.01651,0.036788 0.01857,0.038832 0.01857,0.036788 0.02063,0.034745 0.02063,0.036789 0.02269,0.034745 0.02475,0.032701 0.02475,0.034745 0.0268,0.030655 0.0268,0.032701 0.0268,0.030658 0.03094,0.030658 0.03093,0.028612 0.03918,0.032701 0.03918,0.032701 0.04124,0.030655 0.0433,0.028615 0.04331,0.028615 0.04331,0.026568 0.04537,0.022471 0.04742,0.024525 0.04537,0.020435 0.04743,0.020435 0.04742,0.018398 0.04949,0.018398 0.04949,0.016362 0.0495,0.014302 0.04949,0.014303 0.04949,0.012266 0.09898,0.022471 0.101047,0.016363 0.09898,0.014302 0.09898,0.012266 0.09692,0.00818 0.09486,0.0041 0.0928,0.0041 h 0.08867 l 0.119605,-0.00193 0.119604,-0.00193 0.121666,-0.00613 0.121664,-0.00613 0.121666,-0.01023 0.121666,-0.010229 0.121667,-0.012266 0.121666,-0.014302 0.123727,-0.016362 0.123728,-0.018398 0.123727,-0.020435 0.12373,-0.020435 0.123726,-0.022471 0.12373,-0.024525 0.123726,-0.024525 0.12579,-0.028615 0.367061,-1.4654029 h 1.204284 V -0.75256729 H 14.574311 Z M 0.8877181,5.1660606 l 0.00614,-0.022471 0.014452,0.022471 z M 4.6655459,2.9914569 4.6036791,3.1978822 4.0262818,5.0986145 4.0035894,5.1660605 H 2.1064337 L 1.9600223,4.8554009 4.0035954,2.785034 H 2.6900177 L 1.0918648,4.491607 1.6094589,2.785034 H 0.6402579 V -0.59949543 H 4.6655382 V 2.9914569 Z m 1.1197364,1.6064256 v 0 l -0.030933,0.00193 -0.028869,0.00193 -0.030933,0.00193 h -0.032998 -0.043303 -0.037118 l -0.035054,0.00193 h -0.032997 l -0.2577652,-0.00192 0.1196027,-0.437373 0.055673,-0.216643 0.1361026,-0.5089037 h 0.043303 0.045367 l 0.043303,-0.00193 h 0.041247 0.2000263 l 0.1216656,0.00193 0.1113542,0.0041 0.049488,0.00193 0.047433,0.0041 0.045367,0.00613 0.041239,0.00613 0.037118,0.00613 0.035054,0.01023 0.032997,0.010229 0.028869,0.012266 0.024748,0.012266 0.022693,0.016362 0.020628,0.016362 0.016482,0.020435 0.010305,0.016362 0.00828,0.016362 0.00828,0.018398 0.00614,0.020435 0.0041,0.022471 0.00222,0.022471 v 0.024525 0.026568 l -0.00222,0.028614 -0.00196,0.028612 -0.00614,0.032701 -0.00614,0.032701 -0.018572,0.069489 -0.022693,0.077663 -0.022692,0.065403 -0.024748,0.063356 -0.026804,0.05927 -0.028869,0.055183 -0.014452,0.024527 -0.014443,0.024525 -0.016507,0.024525 -0.018572,0.022471 -0.018573,0.022471 -0.018572,0.020435 -0.020628,0.020435 -0.020628,0.018398 -0.022692,0.016363 -0.022692,0.018398 -0.024748,0.014303 -0.026804,0.016362 -0.026804,0.014302 -0.028869,0.012266 -0.028869,0.012266 -0.030933,0.01023 -0.032989,0.012266 -0.035054,0.00818 -0.037118,0.00818 -0.037118,0.00818 -0.041247,0.00613 -0.041239,0.00613 -0.043303,0.0041 -0.045367,0.0041 z M 8.717633,5.1660606 9.140371,3.674087 9.156881,5.1660606 H 8.717645 Z M 9.361018,2.7789034 H 8.3546983 L 7.6618246,5.1660606 H 6.5936392 l 0.049488,-0.020435 0.049488,-0.020435 0.047432,-0.020435 0.047424,-0.022471 0.045367,-0.022471 0.043303,-0.02657 0.043303,-0.024525 0.041239,-0.02657 0.041247,-0.028612 0.039174,-0.028614 0.037118,-0.028612 0.037118,-0.032701 0.035054,-0.030658 0.032998,-0.034745 0.032998,-0.032701 0.030933,-0.036789 0.030933,-0.034742 0.028869,-0.038834 0.026804,-0.036788 0.026804,-0.040876 0.024748,-0.040876 0.022692,-0.040875 0.022692,-0.042921 0.020628,-0.044962 0.020627,-0.044965 0.018572,-0.044962 0.016482,-0.047008 0.016507,-0.04905 0.012362,-0.049052 0.014443,-0.049053 0.010305,-0.053139 0.010305,-0.051093 0.014452,-0.081754 0.012362,-0.077663 0.00828,-0.073576 0.00614,-0.06949 0.00222,-0.069489 -0.00222,-0.063356 -0.00196,-0.063359 -0.00828,-0.05927 -0.00828,-0.055183 -0.014442,-0.055185 -0.014452,-0.051096 -0.020627,-0.049053 -0.022692,-0.047005 -0.024748,-0.047008 -0.028869,-0.042918 -0.032998,-0.040875 -0.026804,-0.028615 -0.026804,-0.028612 -0.028869,-0.024527 -0.030933,-0.022471 -0.032998,-0.022471 -0.032998,-0.020435 -0.035054,-0.018398 -0.035054,-0.016362 -0.037118,-0.016362 -0.037118,-0.012266 -0.039182,-0.012266 -0.039182,-0.012266 -0.041239,-0.010229 -0.041247,-0.00818 -0.041239,-0.00818 -0.043303,-0.00613 -0.088672,-0.012266 -0.088671,-0.00613 -0.090732,-0.00613 -0.092798,-0.00193 H 6.3193745 6.1358447 6.078107 5.9749997 5.8471465 5.7048589 5.5666961 5.449156 5.3666698 5.3357365 V -0.59938455 H 9.361014 V 2.7790124 Z m 2.445684,2.3871572 H 11.2025 l 0.915585,-1.4306604 z m 2.249789,-2.3197136 -0.0022,0.82774 -0.05155,0.071534 -0.04743,0.073576 -0.04742,0.073577 -0.0433,0.073576 -0.04125,0.073576 -0.04124,0.07562 -0.03505,0.073576 -0.03506,0.073577 -0.033,0.071534 -0.02887,0.073577 -0.02887,0.071534 -0.02475,0.069489 -0.02269,0.069488 -0.02063,0.067446 -0.01857,0.065403 -0.01651,0.0654 -0.0103,0.042921 -0.0103,0.044962 -0.0103,0.042921 -0.0083,0.044962 -0.0083,0.042918 -0.0062,0.042921 -0.0062,0.042919 -0.0041,0.044965 h -0.591833 l 0.505224,-2.3810266 -1.703322,-0.00193 -1.523917,2.3830701 h -0.111345 v -5.76555702 h 4.027343 V 2.8464513 Z m 2.32196,3.2946045 -0.08455,0.014302 -0.08661,0.012266 -0.08662,0.012266 -0.08454,0.010229 -0.08455,0.00818 -0.08455,0.00613 -0.08248,0.0041 h -0.08248 -0.05362 l -0.05362,-0.00193 -0.05155,-0.0041 -0.05156,-0.00613 -0.0495,-0.00818 -0.04742,-0.00818 -0.04743,-0.01023 -0.04537,-0.012266 -0.04331,-0.014302 -0.04331,-0.014302 -0.04124,-0.018398 -0.03918,-0.018398 -0.03918,-0.022471 -0.03712,-0.022471 -0.03505,-0.024525 -0.03299,-0.024527 -0.033,-0.028612 -0.02887,-0.030658 -0.02887,-0.030658 -0.0268,-0.034745 -0.02475,-0.034743 -0.02269,-0.038833 -0.02063,-0.038833 -0.02062,-0.040875 -0.01651,-0.042919 -0.01445,-0.047008 -0.01236,-0.047005 -0.01236,-0.049052 -0.0083,-0.051096 -0.0062,-0.053139 -0.0041,-0.055183 -0.0022,-0.057226 h 1.87655 l -0.206204,0.8236501 z m 2.379701,-0.9748909 h -1.014568 l 0.16703,-0.6662795 H 15.877353 L 15.71032,5.1660606 H 14.726683 V 5.0291248 l 0.01236,-0.057225 0.0103,-0.057226 0.01236,-0.061316 0.01236,-0.061313 0.01857,-0.067446 0.01857,-0.067444 0.02063,-0.067446 0.02269,-0.065403 0.02475,-0.0654 0.0268,-0.065403 0.02887,-0.063356 0.02887,-0.063359 0.033,-0.063356 0.03299,-0.059269 0.03505,-0.061316 0.03918,-0.057226 0.03918,-0.057226 0.03917,-0.055183 0.04331,-0.053139 0.04537,-0.051096 0.04743,-0.049052 0.04743,-0.044962 0.05156,-0.044962 0.05155,-0.042921 0.05362,-0.038833 0.05773,-0.036788 0.05774,-0.032701 0.05981,-0.030655 0.06187,-0.028614 0.06392,-0.024525 0.06598,-0.020435 0.06806,-0.016362 0.07012,-0.014302 0.07217,-0.010229 0.07423,-0.00613 0.0763,-0.00193 0.05981,0.00193 0.05981,0.0041 0.05981,0.00818 0.05773,0.012266 0.02887,0.00818 0.0268,0.00818 0.0268,0.00818 0.02475,0.012266 0.02475,0.010229 0.02475,0.014302 0.02269,0.014302 0.02269,0.014302 0.02063,0.018398 0.02063,0.018398 0.01857,0.018398 0.01857,0.022472 0.01651,0.020435 0.01445,0.024525 0.01236,0.026568 0.01236,0.02657 0.0103,0.028614 0.0083,0.030655 0.0062,0.030658 0.0062,0.034745 0.0022,0.034745 v 0.036789 0.038833 l -0.0041,0.040876 h 1.212534 l 0.01857,-0.083797 0.01651,-0.096058 0.0083,-0.051096 0.0041,-0.055183 0.0041,-0.055183 v -0.057226 l -0.0019,-0.059269 -0.0062,-0.061313 -0.0062,-0.028614 -0.0041,-0.030658 -0.0083,-0.030655 -0.0083,-0.030658 -0.0103,-0.032701 -0.0103,-0.030655 -0.01236,-0.030658 -0.01445,-0.030658 -0.01444,-0.030658 -0.01857,-0.030655 -0.01857,-0.030658 -0.02062,-0.030658 -0.02475,-0.032698 -0.02681,-0.030658 -0.0268,-0.030658 -0.02887,-0.028612 -0.03093,-0.028614 -0.033,-0.026568 -0.033,-0.024527 -0.03505,-0.024525 -0.03712,-0.024525 -0.03712,-0.020435 -0.03917,-0.020435 -0.04125,-0.020435 -0.04124,-0.018398 -0.0433,-0.018398 -0.04537,-0.016362 -0.04537,-0.016362 -0.04537,-0.014302 -0.04949,-0.012266 -0.04743,-0.012266 -0.05155,-0.012266 -0.05156,-0.010229 -0.05155,-0.010229 -0.05362,-0.00818 -0.05567,-0.00613 -0.113417,-0.012266 -0.11548,-0.01023 -0.121666,-0.0041 -0.12373,-0.00193 -0.09279,0.00193 -0.09692,0.00193 -0.101045,0.00613 -0.105168,0.00818 -0.109293,0.012266 -0.111354,0.014303 -0.113417,0.018398 -0.115481,0.024525 -0.05774,0.012266 -0.05981,0.014302 -0.05773,0.016362 -0.05981,0.016362 -0.05981,0.018398 -0.0598,0.020435 -0.05981,0.020435 -0.05773,0.022471 -0.05981,0.024525 -0.05981,0.02657 -0.05774,0.026568 -0.05981,0.028615 -0.05773,0.030655 -0.05773,0.032701 -0.05774,0.032701 -0.05774,0.036789 v -3.61753131 h 4.03147 V 5.1658691 Z" />
</svg>
