<?xml version="1.0" encoding="UTF-8" standalone="no"?>
<svg
   xmlns:dc="http://purl.org/dc/elements/1.1/"
   xmlns:cc="http://creativecommons.org/ns#"
   xmlns:rdf="http://www.w3.org/1999/02/22-rdf-syntax-ns#"
   xmlns:svg="http://www.w3.org/2000/svg"
   xmlns="http://www.w3.org/2000/svg"
   xmlns:sodipodi="http://sodipodi.sourceforge.net/DTD/sodipodi-0.dtd"
   xmlns:inkscape="http://www.inkscape.org/namespaces/inkscape"
   inkscape:version="1.0 (4035a4fb49, 2020-05-01)"
   height="100"
   width="500"
   sodipodi:docname="prince2.svg"
   xml:space="preserve"
   viewBox="0 0 499.99999 100"
   y="0px"
   x="0px"
   id="Layer_1"
   version="1.1"><metadata
   id="metadata83"><rdf:RDF><cc:Work
       rdf:about=""><dc:format>image/svg+xml</dc:format><dc:type
         rdf:resource="http://purl.org/dc/dcmitype/StillImage" /><dc:title></dc:title></cc:Work></rdf:RDF></metadata><defs
   id="defs81">
	
	

		
		
		
		
		
		
		
	
			
			
			
		
			
			
			
		
			
			
			
		</defs><sodipodi:namedview
   inkscape:current-layer="Layer_1"
   inkscape:window-maximized="1"
   inkscape:window-y="304"
   inkscape:window-x="-8"
   inkscape:cy="22.076739"
   inkscape:cx="388.75339"
   inkscape:zoom="0.90509668"
   showgrid="false"
   id="namedview79"
   inkscape:window-height="705"
   inkscape:window-width="1366"
   inkscape:pageshadow="2"
   inkscape:pageopacity="0"
   guidetolerance="10"
   gridtolerance="10"
   objecttolerance="10"
   borderopacity="1"
   bordercolor="#666666"
   pagecolor="#ffffff" />
<style
   id="style2"
   type="text/css">
	.st0{fill:#FFFFFF;}
	.st1{opacity:0.85;}
	.st2{fill-rule:evenodd;clip-rule:evenodd;fill:#FFFFFF;}
	.st3{fill:none;}
	.st4{opacity:0.6;}
</style>
<g
   transform="matrix(2.1652311,0,0,2.1652311,-1.4945904,3.8368018)"
   id="g992"><g
     id="g22"
     style="fill:#808080">
		<path
   id="path4"
   d="m 60.5,33.4 h -3.9 v -24 h 14 c 6.2,0 9.4,2.4 9.4,7.1 0,4.7 -3.2,7.1 -9.4,7.1 H 60.5 Z m 0,-13.4 h 9.4 c 5.3,0 6.4,-1.4 6.4,-3.6 0,-2.2 -1.1,-3.6 -6.4,-3.6 h -9.4 z"
   class="st0"
   style="fill:#808080" />
		<path
   id="path6"
   d="m 107.1,33.4 h -4.8 L 94.9,23.2 h -8.2 v 10.2 h -3.9 v -24 h 13.8 c 7.9,0 9.6,3.8 9.6,6.9 0,4.4 -3.4,6.3 -6.8,6.8 z M 86.7,19.7 H 96 c 4.7,0 6.5,-0.9 6.5,-3.4 0,-2.5 -1.8,-3.4 -6.5,-3.4 h -9.3 z"
   class="st0"
   style="fill:#808080" />
		<rect
   id="rect8"
   height="24"
   width="3.9000001"
   class="st0"
   y="9.3000002"
   x="110.9"
   style="fill:#808080" />
		<polygon
   id="polygon10"
   points="119.7,33.4 119.7,9.3 124.4,9.3 140.7,27.3 140.7,9.3 144.5,9.3 144.5,33.4 141,33.4 123.4,13.8 123.4,33.4 "
   class="st0"
   style="fill:#808080" />
		<path
   id="path12"
   d="m 161.5,33.9 c -8.4,0 -13.6,-4.8 -13.6,-12.5 0,-7.8 5.2,-12.6 13.6,-12.6 5.9,0 10.6,2.6 12.5,6.9 l 0.2,0.5 -3.4,1.6 -0.2,-0.5 c -1.8,-4.1 -5.9,-5 -9.1,-5 -6.3,0 -9.7,3.4 -9.7,9.6 0,5.4 3.7,8.6 10,8.6 4.2,0 7.3,-1.7 9.1,-5.1 l 0.2,-0.5 3.4,1.7 -0.3,0.5 c -2.3,4.6 -6.5,6.8 -12.7,6.8"
   class="st0"
   style="fill:#808080" />
		<polygon
   id="polygon14"
   points="196.1,22.7 181.3,22.7 181.3,29.8 199.4,29.8 199.4,33.4 177.5,33.4 177.5,9.3 199,9.3 199,12.9 181.3,12.9 181.3,19.1 196.1,19.1 "
   class="st0"
   style="fill:#808080" />
		<path
   id="path16"
   d="m 222.5,33.4 h -20.9 v -2.8 l 0.1,-0.1 c 0.6,-1.1 2.3,-4.4 8.4,-7.5 1.1,-0.6 2.1,-1 3.1,-1.5 3.6,-1.6 5.6,-2.5 5.6,-5.4 0,-2.4 -2.4,-4 -6,-4 -4.9,0 -6.6,2.4 -7.6,4.5 l -0.2,0.5 -3.2,-1.5 0.2,-0.5 c 0.4,-1.1 2.6,-6.5 10.5,-6.5 6.4,0 10.1,2.6 10.1,7.3 0,5.1 -3.8,6.8 -7.6,8.4 l -0.2,0.1 c -3.6,1.6 -6.3,2.8 -8.6,5.4 h 16.4 v 3.6 z"
   class="st0"
   style="fill:#808080" />
		<g
   id="g20"
   style="fill:#808080">
			<path
   id="path18"
   d="m 230.2,12 c 0,1.5 -1.2,2.7 -2.7,2.7 -1.5,0 -2.7,-1.2 -2.7,-2.7 0,-1.5 1.2,-2.6 2.7,-2.6 1.5,0 2.7,1.1 2.7,2.6 z m -4.7,0 c 0,1.2 0.9,2.1 2.1,2.1 1.1,0 2,-0.9 2,-2.1 0,-1.2 -0.9,-2.1 -2.1,-2.1 -1.2,0 -2,1 -2,2.1 z m 1.6,1.4 h -0.6 v -2.6 c 0.2,0 0.6,-0.1 1,-0.1 0.5,0 0.7,0.1 0.9,0.2 0.2,0.1 0.3,0.3 0.3,0.6 0,0.3 -0.2,0.5 -0.5,0.6 v 0 c 0.3,0.1 0.4,0.3 0.5,0.6 0.1,0.4 0.1,0.5 0.2,0.6 h -0.6 c -0.1,-0.1 -0.1,-0.3 -0.2,-0.6 0,-0.3 -0.2,-0.4 -0.5,-0.4 h -0.3 v 1.1 z m 0,-1.5 h 0.3 c 0.3,0 0.6,-0.1 0.6,-0.4 0,-0.2 -0.2,-0.4 -0.6,-0.4 -0.2,0 -0.3,0 -0.3,0 z"
   class="st0"
   style="fill:#808080" />
		</g>
	</g><path
     id="path24"
     d="m 24.6,35.8 c 0.8,0.3 1.7,0.5 2.5,0.7 1,-0.5 1.9,-1.1 2.7,-1.8 -0.5,-0.1 -1,-0.3 -1.5,-0.5 -6.7,-2.7 -9.1,-8.1 -7.2,-14.1 1.8,-5.5 7,-9.1 12.8,-7.9 -1.9,-1.5 -4.6,-2.5 -8.5,-2.5 -4.8,0.3 -8.8,3.4 -10.5,7.7 -0.1,0.2 -0.1,0.4 -0.2,0.6 -2.5,7.2 2.2,14.9 9.9,17.8"
     class="st2"
     style="opacity:0.85;fill:#999999" /><path
     style="fill:#999999"
     class="st2"
     d="m 46.6,27.2 c 0.2,-1.5 0.4,-3 0.5,-4.6 C 47,10.4 37.2,0.5 25,0.5 14.4,0.5 5.5,8 3.5,17.9 6,10.1 12.7,4.6 20.6,4.6 c 10.1,0 18.2,9 18.2,20 0,2.1 -1.2,18.3 13.6,16.8 -1,-0.3 -8,-0.3 -5.8,-14.2"
     id="path32" /><path
     id="path42"
     d="M 20.6,38.3 C 22,38.2 23.3,38 24.6,37.5 17.1,36.4 11.2,30.1 10.9,22.2 10.5,13.3 17.4,5.7 26.3,5.3 c 3.9,-0.2 7.6,1.1 10.5,3.3 1,0.6 2,1.3 2.9,2.2 C 36,5.1 29.4,1.5 22.2,1.8 c -11,0.5 -19.5,9.8 -19,20.8 0.1,2.2 0.6,4.3 1.3,6.3 3,5.9 9.1,9.7 16.1,9.4"
     class="st2"
     style="opacity:0.85;fill:#999999" /><path
     id="path66"
     d="M 45.8,19.2 C 45.6,15.5 44.4,13 43.2,10.6 42.6,11.5 42.1,12.2 41.6,12.9 38.7,8.8 33.7,6.2 28.3,6.6 21.7,7 16.5,11.5 14.7,17.4 16.4,13.1 20.4,10 25.3,9.6 39.8,9.6 38.5,23.1 34.8,29 31.6,34.2 26.4,38 20.6,38.3 13.6,38.6 7.5,34.8 4.4,28.8 7.6,37 15.9,42.6 25.2,42.2 37,41.7 46.3,31.4 45.8,19.2"
     class="st2"
     style="opacity:0.6;fill:#999999" /></g>
</svg>
