<?xml version="1.0" encoding="UTF-8" standalone="no"?>
<svg
   xmlns:dc="http://purl.org/dc/elements/1.1/"
   xmlns:cc="http://creativecommons.org/ns#"
   xmlns:rdf="http://www.w3.org/1999/02/22-rdf-syntax-ns#"
   xmlns:svg="http://www.w3.org/2000/svg"
   xmlns="http://www.w3.org/2000/svg"
   xmlns:sodipodi="http://sodipodi.sourceforge.net/DTD/sodipodi-0.dtd"
   xmlns:inkscape="http://www.inkscape.org/namespaces/inkscape"
   inkscape:version="1.0 (4035a4fb49, 2020-05-01)"
   height="100"
   width="100"
   sodipodi:docname="badge-psmi.svg"
   id="svg1059"
   version="1.1"
   viewBox="0 0 100 100">
  <metadata
     id="metadata1063">
    <rdf:RDF>
      <cc:Work
         rdf:about="">
        <dc:format>image/svg+xml</dc:format>
        <dc:type
           rdf:resource="http://purl.org/dc/dcmitype/StillImage" />
        <dc:title>x</dc:title>
      </cc:Work>
    </rdf:RDF>
  </metadata>
  <sodipodi:namedview
     inkscape:current-layer="svg1059"
     inkscape:window-maximized="1"
     inkscape:window-y="304"
     inkscape:window-x="-8"
     inkscape:cy="56.695031"
     inkscape:cx="37.252565"
     inkscape:zoom="5.7123136"
     showgrid="false"
     id="namedview1061"
     inkscape:window-height="705"
     inkscape:window-width="1366"
     inkscape:pageshadow="2"
     inkscape:pageopacity="0"
     guidetolerance="10"
     gridtolerance="10"
     objecttolerance="10"
     borderopacity="1"
     bordercolor="#666666"
     pagecolor="#ffffff" />
  <defs
     id="defs1000">
    <style
       id="style998">.cls-1{fill:#3a7c9a;}.cls-2{fill:#89b0c2;}.cls-3{fill:#fff;}</style>
  </defs>
  <title
     id="title1002">x</title>
  <g
     transform="matrix(0.33359988,0,0,0.33359988,-0.08693602,-0.86902135)"
     id="g1117">
    <path
       id="path1008"
       d="M 254.3,48.2 A 147.51,147.51 0 0 0 45.7,48.2 147.5,147.5 0 0 0 150,300 147.5,147.5 0 0 0 254.3,48.2 Z"
       class="cls-1"
       style="fill:#333333" />
    <circle
       id="circle1010"
       r="5"
       cy="30"
       cx="150"
       class="cls-2"
       style="fill:#808080" />
    <path
       id="path1012"
       d="m 109.8,42 a 5,5 0 1 0 -6.4,-3 4.89,4.89 0 0 0 6.4,3 z"
       class="cls-2"
       style="fill:#808080" />
    <path
       id="path1014"
       d="m 68,54.8 a 5,5 0 1 0 7,0.6 5,5 0 0 0 -7,-0.6 z"
       class="cls-2"
       style="fill:#808080" />
    <path
       id="path1016"
       d="m 41.4,95.6 a 5,5 0 1 0 -1.8,-6.8 4.93,4.93 0 0 0 1.8,6.8 z"
       class="cls-2"
       style="fill:#808080" />
    <path
       id="path1018"
       d="m 30.2,126.3 a 5,5 0 1 0 4,5.8 5,5 0 0 0 -4,-5.8 z"
       class="cls-2"
       style="fill:#808080" />
    <path
       id="path1020"
       d="m 28.5,168.9 a 5,5 0 1 0 5.8,4 5,5 0 0 0 -5.8,-4 z"
       class="cls-2"
       style="fill:#808080" />
    <path
       id="path1022"
       d="m 41.4,209.4 a 5,5 0 1 0 6.8,1.8 5.12,5.12 0 0 0 -6.8,-1.8 z"
       class="cls-2"
       style="fill:#808080" />
    <path
       id="path1024"
       d="m 67.4,243.2 a 5,5 0 1 0 7,-0.6 4.85,4.85 0 0 0 -7,0.6 z"
       class="cls-2"
       style="fill:#808080" />
    <circle
       id="circle1026"
       r="5"
       cy="267.63"
       cx="108.06"
       class="cls-2"
       style="fill:#808080" />
    <path
       id="path1028"
       d="m 150,270 a 5,5 0 1 0 5,5 5,5 0 0 0 -5,-5 z"
       class="cls-2"
       style="fill:#808080" />
    <path
       id="path1030"
       d="m 190.2,263 a 5,5 0 1 0 6.4,3 4.85,4.85 0 0 0 -6.4,-3 z"
       class="cls-2"
       style="fill:#808080" />
    <path
       id="path1032"
       d="m 225.6,242.5 a 5,5 0 1 0 7,0.6 5,5 0 0 0 -7,-0.6 z"
       class="cls-2"
       style="fill:#808080" />
    <path
       id="path1034"
       d="m 258.6,209.4 a 5,5 0 1 0 1.8,6.8 4.93,4.93 0 0 0 -1.8,-6.8 z"
       class="cls-2"
       style="fill:#808080" />
    <path
       id="path1036"
       d="m 280.2,152.5 4,-15.6 10.9,0.7 c -0.4,-3.5 -0.8,-7 -1.4,-10.4 v 0 -0.1 c -0.6,-3.5 -1.3,-6.9 -2.2,-10.2 l -10,4.3 -9.1,-13.3 -1.6,-16 10.5,-3.1 c -1.5,-3.1 -3.2,-6.2 -4.9,-9.3 h -0.1 v -0.1 c -1.8,-3 -3.6,-6 -5.6,-8.9 l -7.9,7.5 -13.1,-9.4 -6.9,-14.5 8.8,-6.5 c -2.5,-2.4 -5.1,-4.8 -7.8,-7 v 0 c -2.7,-2.2 -5.4,-4.4 -8.3,-6.5 l -4.9,9.8 -15.5,-4.3 -11.5,-11.3 6,-9.1 c -3.2,-1.4 -6.4,-2.8 -9.7,-3.9 h -0.1 v -0.1 c -3.3,-1.2 -6.6,-2.3 -10,-3.2 l -1.2,10.9 -16,1.3 L 158,17.6 160.5,7 C 157,6.8 153.5,6.6 150,6.6 v 0 c -3.5,0 -7,0.1 -10.5,0.4 l 2.5,10.6 -14.7,6.7 -16,-1.3 -1.2,-10.9 c -3.4,1 -6.7,2 -10,3.2 v 0.1 H 100 c -3.3,1.2 -6.5,2.5 -9.7,3.9 l 6,9.1 L 84.9,39.7 69.4,44 64.5,34.2 c -2.8,2.1 -5.6,4.2 -8.3,6.5 v 0 c -2.7,2.2 -5.3,4.6 -7.8,7 l 8.7,6.5 -6.9,14.5 -13.1,9.3 -7.9,-7.5 c -2,2.9 -3.8,5.8 -5.6,8.9 v 0.1 h -0.1 c -1.7,3 -3.4,6.1 -4.9,9.3 l 10.5,3.1 -1.6,16 -9.1,13.3 -10,-4.3 c -0.8,3.4 -1.6,6.8 -2.2,10.2 v 0.1 H 6.1 c -0.6,3.4 -1.1,6.9 -1.4,10.4 l 10.9,-0.7 4,15.6 -4,15.6 -10.9,-0.7 c 0.4,3.5 0.8,7 1.4,10.4 h 0.1 c 0.6,3.5 1.3,6.9 2.2,10.2 l 10,-4.3 9.1,13.3 1.6,16 -10.5,3.1 c 1.5,3.1 3.2,6.2 4.9,9.3 h 0.1 v 0.1 c 1.7,3 3.6,6 5.6,8.9 l 7.9,-7.5 13.1,9.3 6.9,14.5 -8.8,6.5 c 2.5,2.4 5.1,4.8 7.8,7 v 0 c 2.7,2.3 5.4,4.4 8.3,6.5 l 4.9,-9.8 15.5,4.3 11.5,11.3 -6,9.1 c 3.2,1.4 6.4,2.7 9.7,3.9 h 0.1 v 0.1 c 3.3,1.2 6.6,2.3 10,3.2 l 1.2,-10.9 16,-1.3 14.7,6.7 -2.5,10.6 c 3.5,0.2 7,0.4 10.5,0.4 v 0 c 3.5,0 7,-0.1 10.5,-0.4 l -2.5,-10.6 14.7,-6.7 16,1.3 1.2,10.9 c 3.4,-1 6.7,-2 10,-3.2 v -0.1 h 0.1 c 3.3,-1.2 6.5,-2.5 9.7,-3.9 l -6,-9.1 11.5,-11.3 15.5,-4.3 4.9,9.8 c 2.8,-2.1 5.6,-4.2 8.3,-6.5 v 0 c 2.7,-2.3 5.3,-4.6 7.8,-7 l -8.8,-6.5 6.9,-14.5 13.1,-9.3 7.9,7.5 c 2,-2.9 3.8,-5.8 5.6,-8.9 v -0.1 h 0.1 c 1.7,-3 3.4,-6.1 4.9,-9.3 l -10.5,-3.1 1.6,-16 9.1,-13.3 10,4.4 c 0.9,-3.4 1.6,-6.8 2.2,-10.2 v 0 c 0.6,-3.4 1.1,-6.9 1.4,-10.4 l -10.9,0.7 z m -2.2,22.6 a 123,123 0 0 1 -5.9,21.8 132.16,132.16 0 0 1 -9.6,20.6 130.19,130.19 0 0 1 -13,18.5 127.28,127.28 0 0 1 -16,16 138.07,138.07 0 0 1 -18.6,13 128.14,128.14 0 0 1 -20.5,9.6 133.65,133.65 0 0 1 -21.9,5.8 127.56,127.56 0 0 1 -45,0 133.65,133.65 0 0 1 -21.9,-5.8 124.2,124.2 0 0 1 -20.5,-9.6 128,128 0 0 1 -18.5,-12.9 131.82,131.82 0 0 1 -29,-34.5 122.11,122.11 0 0 1 -9.5,-20.5 130.66,130.66 0 0 1 -5.9,-21.9 135.36,135.36 0 0 1 0,-45.2 118.51,118.51 0 0 1 5.9,-21.8 141.36,141.36 0 0 1 9.5,-20.6 146.76,146.76 0 0 1 13,-18.6 127.28,127.28 0 0 1 16,-16 129.57,129.57 0 0 1 18.6,-13 128.14,128.14 0 0 1 20.5,-9.6 133.65,133.65 0 0 1 21.9,-5.8 127,127 0 0 1 44.9,0 134.77,134.77 0 0 1 22,5.8 132.33,132.33 0 0 1 20.5,9.6 122.06,122.06 0 0 1 18.6,13 135.06,135.06 0 0 1 16,16.1 130.19,130.19 0 0 1 13,18.5 123,123 0 0 1 9.5,20.6 132.14,132.14 0 0 1 5.9,21.8 134.77,134.77 0 0 1 0,45.1 z"
       class="cls-2"
       style="fill:#808080" />
    <path
       id="path1038"
       d="m 271.5,168.9 a 5,5 0 1 0 4,5.9 4.87,4.87 0 0 0 -4,-5.9 z"
       class="cls-2"
       style="fill:#808080" />
    <circle
       id="circle1040"
       r="5"
       cy="131.19"
       cx="270.70001"
       class="cls-2"
       style="fill:#808080" />
    <path
       id="path1042"
       d="m 253.6,86.9 a 5,5 0 1 0 6.8,1.8 5,5 0 0 0 -6.8,-1.8 z"
       class="cls-2"
       style="fill:#808080" />
    <path
       id="path1044"
       d="m 224.9,55.4 a 5,5 0 1 0 7,-0.6 5,5 0 0 0 -7,0.6 z"
       class="cls-2"
       style="fill:#808080" />
    <path
       id="path1046"
       d="m 193.6,32.7 a 5,5 0 1 0 3,6.4 5,5 0 0 0 -3,-6.4 z"
       class="cls-2"
       style="fill:#808080" />
    <path
       id="path1048"
       d="M 262.9,152.5 A 112.9,112.9 0 1 1 150,39.6 112.9,112.9 0 0 1 262.9,152.5 Z"
       class="cls-3"
       style="fill:#333333;fill-opacity:1" />
    <path
       id="path1050"
       d="m 49.2,116.89 h 26.43 c 14.78,0 27.05,4.72 27.05,21.61 0,16.69 -11.36,21.82 -26.34,21.82 H 64.87 v 27.74 H 49.2 Z m 15.67,30.16 h 10.46 c 5.53,0 11.06,-1.91 11.06,-8.55 0,-7.34 -7.44,-8.35 -13.47,-8.35 h -8 z"
       class="cls-1"
       style="fill:#808080" />
    <path
       id="path1052"
       d="m 147.72,134.28 c -2.52,-3.22 -7.54,-4.73 -11.36,-4.73 -4.43,0 -10.56,2 -10.56,7.34 0,13 32.78,4.62 32.78,29.56 0,15.88 -12.77,23.42 -27.45,23.42 -9.15,0 -17.19,-2.71 -23.93,-8.94 l 11.16,-12.27 a 17.45,17.45 0 0 0 13.64,6.73 c 5.13,0 10.86,-2.41 10.86,-7.43 0,-13.07 -33.38,-6 -33.38,-29.76 0,-15.18 13.18,-23.12 27.15,-23.12 8,0 15.78,2.11 21.82,7.44 z"
       class="cls-1"
       style="fill:#808080" />
    <path
       id="path1054"
       d="M 170.24,116.89 H 194 l 16.39,46.44 h 0.2 L 227,116.89 h 23.63 v 71.17 H 235 v -54.59 h -0.2 l -18.7,54.59 h -12 l -18,-54.59 h -0.2 v 54.59 h -15.66 z"
       class="cls-1"
       style="fill:#808080" />
    <path
       id="path1056"
       d="m 144.53,200.34 h 10.94 V 250 h -10.94 z"
       class="cls-1"
       style="fill:#808080" />
  </g>
</svg>
